<?xml version="1.0" encoding="UTF-8"?>
<svg width="334px" height="136px" viewBox="0 0 334 136" version="1.1" xmlns="http://www.w3.org/2000/svg" xmlns:xlink="http://www.w3.org/1999/xlink">
    <!-- Generator: Sketch 57.1 (83088) - https://sketch.com -->
    <title>素材</title>
    <desc>Created with Sketch.</desc>
    <defs>
        <polygon id="path-1" points="0.383300569 0.0979896018 58.3467321 0.0979896018 58.3467321 78 0.383300569 78"></polygon>
        <polygon id="path-3" points="0.237343787 0.638235294 5.83822923 0.638235294 5.83822923 27.6164 0.237343787 27.6164"></polygon>
        <polygon id="path-5" points="0 0.643877403 26.9079441 0.643877403 26.9079441 5.87912493 0 5.87912493"></polygon>
        <linearGradient x1="50%" y1="0%" x2="50%" y2="100%" id="linearGradient-7">
            <stop stop-color="#3683F7" offset="0%"></stop>
            <stop stop-color="#3B50F4" offset="100%"></stop>
        </linearGradient>
        <linearGradient x1="50%" y1="0%" x2="50%" y2="100%" id="linearGradient-8">
            <stop stop-color="#3EDFFE" offset="0%"></stop>
            <stop stop-color="#2652D1" offset="100%"></stop>
        </linearGradient>
        <linearGradient x1="50%" y1="0%" x2="50%" y2="100%" id="linearGradient-9">
            <stop stop-color="#30ACEC" offset="0%"></stop>
            <stop stop-color="#3682F5" offset="100%"></stop>
        </linearGradient>
        <linearGradient x1="50%" y1="0%" x2="50%" y2="100%" id="linearGradient-10">
            <stop stop-color="#3683F7" offset="0%"></stop>
            <stop stop-color="#3B50F4" offset="100%"></stop>
        </linearGradient>
        <linearGradient x1="50%" y1="0%" x2="50%" y2="100%" id="linearGradient-11">
            <stop stop-color="#3EDFFE" offset="0%"></stop>
            <stop stop-color="#2652D1" offset="100%"></stop>
        </linearGradient>
        <linearGradient x1="50%" y1="0%" x2="50%" y2="100%" id="linearGradient-12">
            <stop stop-color="#3683F7" offset="0%"></stop>
            <stop stop-color="#3B50F4" offset="100%"></stop>
        </linearGradient>
        <linearGradient x1="50%" y1="0%" x2="50%" y2="100%" id="linearGradient-13">
            <stop stop-color="#3EDFFE" offset="0%"></stop>
            <stop stop-color="#2652D1" offset="100%"></stop>
        </linearGradient>
        <linearGradient x1="50%" y1="0%" x2="50%" y2="100%" id="linearGradient-14">
            <stop stop-color="#30ACEC" offset="0%"></stop>
            <stop stop-color="#3682F5" offset="100%"></stop>
        </linearGradient>
        <linearGradient x1="50%" y1="0%" x2="50%" y2="100%" id="linearGradient-15">
            <stop stop-color="#30ACEC" offset="0%"></stop>
            <stop stop-color="#3682F5" offset="100%"></stop>
        </linearGradient>
        <linearGradient x1="50%" y1="23.6323696%" x2="41.5530234%" y2="193.269527%" id="linearGradient-16">
            <stop stop-color="#328EF6" offset="0%"></stop>
            <stop stop-color="#0057D7" offset="100%"></stop>
        </linearGradient>
        <linearGradient x1="50%" y1="23.6323696%" x2="47.4825549%" y2="153.941997%" id="linearGradient-17">
            <stop stop-color="#1FFDFE" offset="0%"></stop>
            <stop stop-color="#205BD6" offset="100%"></stop>
        </linearGradient>
        <linearGradient x1="50%" y1="0%" x2="50%" y2="324.664907%" id="linearGradient-18">
            <stop stop-color="#328EF6" offset="0%"></stop>
            <stop stop-color="#0057D7" offset="100%"></stop>
        </linearGradient>
        <linearGradient x1="50%" y1="0%" x2="50%" y2="218.235191%" id="linearGradient-19">
            <stop stop-color="#1FFDFE" offset="0%"></stop>
            <stop stop-color="#205BD6" offset="100%"></stop>
        </linearGradient>
        <linearGradient x1="56.1929545%" y1="46.8948932%" x2="53.4336299%" y2="52.9079112%" id="linearGradient-20">
            <stop stop-color="#1B7DE2" offset="0%"></stop>
            <stop stop-color="#0036FF" offset="100%"></stop>
        </linearGradient>
        <linearGradient x1="60.7162478%" y1="47.1954782%" x2="64.8070904%" y2="53.4231658%" id="linearGradient-21">
            <stop stop-color="#71FFF9" offset="0%"></stop>
            <stop stop-color="#014EBC" offset="100%"></stop>
        </linearGradient>
        <polygon id="path-22" points="0.324830991 0.0841705554 49.4463832 0.0841705554 49.4463832 67 0.324830991 67"></polygon>
        <polygon id="path-24" points="0.213609408 0.547058824 5.2544063 0.547058824 5.2544063 23.6712 0.213609408 23.6712"></polygon>
        <polygon id="path-26" points="0 0.579489662 22.3485424 0.579489662 22.3485424 5.29121244 0 5.29121244"></polygon>
    </defs>
    <g id="Page-1" stroke="none" stroke-width="1" fill="none" fill-rule="evenodd">
        <g id="专家评审中" transform="translate(-578.000000, -204.000000)">
            <g id="素材" transform="translate(578.000000, 204.000000)">
                <g>
                    <path d="M108.164253,29 C103.391711,29.0003534 99.338099,32.4453108 97.8812877,37.2344696 L97.8812877,37.2344696 C96.6455883,36.2164244 95.1208641,35.61323 93.4688427,35.6114632 L93.4688427,35.6114632 C89.3675336,35.6068694 86.0353779,39.3055431 86,43.885863 L86,43.885863 L86,43.9498221 L97.5973169,43.96325 L100.922839,43.9667837 L115.077157,43.9826851 L118.73182,43.9869255 L130,44 C130.004103,39.3899974 126.667209,35.6492732 122.546315,35.6443261 L122.546315,35.6443261 C121.01022,35.6429127 119.582469,36.1609461 118.394782,37.0496596 L118.394782,37.0496596 C116.892169,32.3615633 112.88657,29.0053005 108.178467,29 L108.178467,29 L108.164253,29 Z" id="Fill-1" fill="#FFFFFF"></path>
                    <g id="分组-copy-2" transform="translate(293.500000, 82.000000) scale(-1, 1) translate(-293.500000, -82.000000) translate(254.000000, 29.000000)">
                        <path d="M23.4029246,38 C23.4029246,38 21.5041313,25.8157251 33.268844,13.0086651 C33.2728264,13.0045021 33.2784017,12.9961761 33.2791982,13.0020043 C33.2935347,13.2426258 33.8996512,24.2887359 23.4029246,38" id="Fill-1" fill="#FF992C"></path>
                        <path d="M23.4479554,38 C23.5206144,38 23.5848603,37.9475791 23.6016866,37.869351 C23.6208074,37.7830581 25.489292,29.1384462 29.272916,21.2430502 C29.3119225,21.1607897 29.2813292,21.0607867 29.2040811,21.01885 C29.1260683,20.9761068 29.0312291,21.0083658 28.9922227,21.0922393 C25.1902427,29.0255397 23.3125801,37.7096688 23.2934593,37.7967682 C23.2751033,37.8854805 23.3286416,37.9766122 23.4135379,37.9959676 C23.4242456,37.998387 23.4364829,38 23.4479554,38" id="Fill-3" fill="#FFFFFF"></path>
                        <path d="M40.2898551,66.6570519 C40.2898551,66.6570519 31.3769996,58.4247969 14.2898551,61.8218368 C16.8436536,63.6492735 25.2813647,68.2919506 40.2898551,66.6570519" id="Fill-5" fill="#FF992C"></path>
                        <path d="M40.1193599,67 C40.188205,67 40.2545618,66.9606389 40.2794456,66.8970555 C40.3117945,66.8153055 40.2661742,66.7259861 40.1782515,66.6964652 C40.0919877,66.6684583 31.5361127,63.8511104 22.4775852,63.0056033 C22.3830268,62.9775964 22.2992514,63.0593464 22.2909568,63.1448811 C22.2801738,63.2311728 22.3498484,63.3076242 22.4427479,63.3167075 C31.4589729,64.1591869 39.9758634,66.9621528 40.0604682,66.9901597 C40.0803753,66.9977292 40.1002823,67 40.1193599,67" id="Fill-7" fill="#FFFFFF"></path>
                        <g id="分组" transform="translate(19.289855, 28.000000)">
                            <mask id="mask-2" fill="white">
                                <use xlink:href="#path-1"></use>
                            </mask>
                            <g id="Clip-10"></g>
                            <path d="M58.1758282,78.0003284 C58.2273493,78.0003284 58.2788704,77.9765179 58.3121099,77.9321811 C58.3694479,77.8566442 58.3536592,77.7499074 58.2788704,77.6940758 C58.1783211,77.61936 48.1516451,70.08456 36.1015183,56.8229179 C24.9820958,44.5851284 9.8174338,24.8306021 0.71564507,0.209696842 C0.68323662,0.121023158 0.581856338,0.0758652632 0.496264789,0.108707368 C0.407349296,0.140728421 0.360814085,0.238433684 0.394053521,0.326286316 C9.51495493,25.0022021 24.7111944,44.79696 35.8522225,57.0569179 C47.9239549,70.3415495 57.9722366,77.8911284 58.0727859,77.9650232 C58.1035324,77.9888337 58.1392648,78.0003284 58.1758282,78.0003284" id="Fill-9" fill="#91C7FD" mask="url(#mask-2)"></path>
                        </g>
                        <g id="分组" transform="translate(14.289855, 0.000000)">
                            <mask id="mask-4" fill="white">
                                <use xlink:href="#path-3"></use>
                            </mask>
                            <g id="Clip-12"></g>
                            <path d="M4.62758333,27.0111059 C7.29841667,12.0574588 3.03925,3.0884 2.04175,1.25275294 C-1.96991667,15.9848706 3.41675,25.1935765 4.62758333,27.0111059 M4.58758333,27.5496941 C4.51091667,27.4525176 -2.92908333,17.6129882 1.82175,0.763576471 C1.83925,0.699341176 1.89425,0.650752941 1.96091667,0.640870588 C2.03758333,0.627694118 2.09508333,0.661458824 2.13175,0.719105882 C2.19258333,0.812988235 8.08008333,10.3058118 4.89258333,27.4764 C4.88008333,27.5431059 4.82925,27.5958118 4.76341667,27.6114588 C4.75008333,27.6147529 4.73675,27.6164 4.72341667,27.6164 C4.67091667,27.6164 4.62008333,27.5925176 4.58758333,27.5496941" id="Fill-11" fill="#91C7FD" mask="url(#mask-4)"></path>
                        </g>
                        <path d="M20.1202124,28 C20.1350437,28 20.1506989,27.9982841 20.1655301,27.9939944 C20.2569895,27.9673982 20.3088989,27.8687348 20.2833562,27.7743611 C20.2594614,27.6834191 17.8576225,18.589226 17.629386,9.17416238 C17.6269141,9.0763569 17.5511099,9 17.4596506,9 L17.4555308,9 C17.3615995,9.00257383 17.2874432,9.08407839 17.2899151,9.18188386 C17.5181516,18.6441344 19.9315259,27.7795087 19.9570686,27.8704506 C19.9784916,27.9485234 20.0460562,28 20.1202124,28" id="Fill-13" fill="#91C7FD"></path>
                        <path d="M31.645935,52.4344097 C42.8384038,42.0289981 44.6325006,32.6250521 44.9028786,30.5423584 C32.8226266,39.9366363 31.7385878,50.3049863 31.645935,52.4344097 M31.3982991,52.9879147 C31.3351266,52.9621328 31.293854,52.9041236 31.2904848,52.8388632 C31.2862733,52.7188162 31.065591,40.6907567 44.9921622,30.0452513 C45.0502809,29.9969102 45.1404069,29.9848249 45.2035793,30.0210807 C45.2608556,30.0533081 45.2937053,30.1153458 45.2894938,30.1781891 C45.2583287,30.6237325 44.3789686,41.2160628 31.5836048,52.9548817 C31.5515975,52.9854977 31.5077979,53 31.4639984,53 C31.4420986,53 31.4193565,52.9967773 31.3982991,52.9879147" id="Fill-15" fill="#91C7FD"></path>
                        <path d="M31.4670034,54 C31.5391756,54 31.6070518,53.9564789 31.6328275,53.8839438 C31.666336,53.7977551 34.9501694,45.0022335 40.2591193,37.2768181 C40.3141076,37.1966028 40.293487,37.0865201 40.2118637,37.0301987 C40.1319588,36.9764374 40.021123,36.9960645 39.9661347,37.0762798 C34.6322682,44.8400962 31.3346878,53.6740187 31.3011793,53.7627675 C31.2668116,53.8540764 31.313208,53.9564789 31.4060007,53.9889064 C31.4257622,53.9965866 31.4463828,54 31.4670034,54" id="Fill-17" fill="#91C7FD"></path>
                        <path d="M48.6969502,78 C48.6969502,78 43.7391821,66.6179842 52.4358402,51 C52.4358402,51 55.9578745,61.6641404 48.6969502,78" id="Fill-19" fill="#88B9F3"></path>
                        <path d="M49.4699636,79 L49.4748433,79 C49.5683709,78.9965906 49.6399398,78.9156172 49.6383132,78.8175967 C49.6350601,78.723838 49.3821291,69.3547873 51.2860244,60.2141669 C51.3055432,60.1195559 51.2486134,60.0249448 51.1575257,60.0044884 C51.0672513,59.9823272 50.9777902,60.0445489 50.9590847,60.1400123 C49.0446167,69.322398 49.2999875,78.7349186 49.3024274,78.8286773 C49.3048672,78.9241407 49.3796892,79 49.4699636,79" id="Fill-21" fill="#2060D0"></path>
                        <g id="分组" transform="translate(0.289855, 39.000000)">
                            <mask id="mask-6" fill="white">
                                <use xlink:href="#path-5"></use>
                            </mask>
                            <g id="Clip-24"></g>
                            <path d="M26.9079441,4.78141667 C26.9079441,4.78141667 17.104028,-2.57608333 0.00109090909,2.33141667 C0.000251748252,2.33225 -0.000587412587,2.33308333 0.000251748252,2.33308333 C2.76528671,3.91558333 11.7686434,7.75558333 26.9079441,4.78141667" id="Fill-23" fill="#88B9F3" mask="url(#mask-6)"></path>
                        </g>
                        <path d="M27.1116063,44 C27.190892,44 27.2632832,43.9448235 27.2839664,43.8629487 C27.3089586,43.7641649 27.2520798,43.6636013 27.1572817,43.6377929 C27.0659309,43.6119846 17.9308452,41.1290418 8.47086077,41 L8.46741356,41 C8.3700301,41 8.29160625,41.0809849 8.28985507,41.1824384 C8.28815905,41.283892 8.3674447,41.3675467 8.46482816,41.3693266 C17.8825844,41.4965885 26.9754418,43.968852 27.0659309,43.9928805 C27.0814433,43.9973302 27.0960939,44 27.1116063,44" id="Fill-25" fill="#91C7FD"></path>
                        <path d="M33.9074194,88.0665552 C36.6660953,89.6717312 45.206437,93.5225369 59.68055,90.5080037 C57.846974,89.2342826 48.6134308,83.6013453 33.9074194,88.0665552 M33.3779598,88.1743454 C33.3264269,88.1420083 33.2898551,88.0809272 33.2898551,88.0126601 C33.2898551,87.9273261 33.3438816,87.8545677 33.4170251,87.8321114 C50.2350567,82.5441028 60.1235673,90.3768589 60.2216461,90.4568033 C60.2748415,90.5008177 60.3006079,90.5753726 60.2856468,90.6463345 C60.2706856,90.7181946 60.2174903,90.7747845 60.1518273,90.7882583 C56.1073209,91.6595626 52.5141436,92 49.3698017,92 C40.4329886,92 35.1192752,89.2540441 33.3779598,88.1743454" id="Fill-27" fill="#91C7FD"></path>
                        <path d="M61.1116627,92 C61.1909233,92 61.2632916,91.945111 61.2839683,91.8623275 C61.3089526,91.7615477 61.2520917,91.659868 61.1573237,91.6337732 C61.0660017,91.6085783 51.927775,89.1133773 42.4690598,89 L42.4681983,89 C42.3708457,89 42.2915851,89.0809838 42.2898551,89.1844631 C42.2890005,89.2861428 42.3682611,89.3707259 42.4664753,89.3725255 C51.8795294,89.4859028 60.9755413,91.9703059 61.0660017,91.9946011 C61.0806477,91.9991002 61.0961552,92 61.1116627,92" id="Fill-29" fill="#91C7FD"></path>
                    </g>
                    <g id="Group-19-Copy-4" transform="translate(219.000000, 53.000000)">
                        <polygon id="Path-31" stroke="url(#linearGradient-8)" fill="url(#linearGradient-7)" opacity="0.773577009" points="0.024337382 81 0.024337382 7.25865 0 0 5.25514752 0.0408432178 9.60699794 0.0408432178 12.2386938 0.0408432178 15.4968428 0.0408432178 18.8423694 0.0408432178 30 0.0408432178 30 81"></polygon>
                        <polygon id="Rectangle-16" fill="url(#linearGradient-9)" points="4 3 7 3 7 6 4 6"></polygon>
                        <polygon id="Rectangle-16-Copy-24" fill="url(#linearGradient-9)" opacity="0.656761533" points="4 41 7 41 7 44 4 44"></polygon>
                        <polygon id="Rectangle-16-Copy-8" fill="url(#linearGradient-9)" points="4 16 7 16 7 19 4 19"></polygon>
                        <polygon id="Rectangle-16-Copy-25" fill="url(#linearGradient-9)" opacity="0.454171317" points="4 54 7 54 7 57 4 57"></polygon>
                        <polygon id="Rectangle-16-Copy-16" fill="url(#linearGradient-9)" points="4 29 7 29 7 32 4 32"></polygon>
                        <polygon id="Rectangle-16-Copy-26" fill="url(#linearGradient-9)" opacity="0.454171317" points="4 67 7 67 7 70 4 70"></polygon>
                        <polygon id="Rectangle-16-Copy-4" fill="url(#linearGradient-9)" points="4 10 7 10 7 13 4 13"></polygon>
                        <polygon id="Rectangle-16-Copy-27" fill="url(#linearGradient-9)" opacity="0.656761533" points="4 48 7 48 7 51 4 51"></polygon>
                        <polygon id="Rectangle-16-Copy-9" fill="url(#linearGradient-9)" points="4 22 7 22 7 25 4 25"></polygon>
                        <polygon id="Rectangle-16-Copy-28" fill="url(#linearGradient-9)" opacity="0.454171317" points="4 60 7 60 7 63 4 63"></polygon>
                        <polygon id="Rectangle-16-Copy-17" fill="url(#linearGradient-9)" opacity="0.656761533" points="4 35 7 35 7 38 4 38"></polygon>
                        <polygon id="Rectangle-16-Copy-29" fill="url(#linearGradient-9)" opacity="0.454171317" points="4 73 7 73 7 76 4 76"></polygon>
                        <polygon id="Rectangle-16-Copy" fill="url(#linearGradient-9)" points="10 3 13 3 13 6 10 6"></polygon>
                        <polygon id="Rectangle-16-Copy-30" fill="url(#linearGradient-9)" opacity="0.656761533" points="10 41 13 41 13 44 10 44"></polygon>
                        <polygon id="Rectangle-16-Copy-10" fill="url(#linearGradient-9)" points="10 16 13 16 13 19 10 19"></polygon>
                        <polygon id="Rectangle-16-Copy-31" fill="url(#linearGradient-9)" opacity="0.454171317" points="10 54 13 54 13 57 10 57"></polygon>
                        <polygon id="Rectangle-16-Copy-18" fill="url(#linearGradient-9)" points="10 29 13 29 13 32 10 32"></polygon>
                        <polygon id="Rectangle-16-Copy-32" fill="url(#linearGradient-9)" opacity="0.454171317" points="10 67 13 67 13 70 10 70"></polygon>
                        <polygon id="Rectangle-16-Copy-5" fill="url(#linearGradient-9)" points="10 10 13 10 13 13 10 13"></polygon>
                        <polygon id="Rectangle-16-Copy-33" fill="url(#linearGradient-9)" opacity="0.656761533" points="10 48 13 48 13 51 10 51"></polygon>
                        <polygon id="Rectangle-16-Copy-11" fill="url(#linearGradient-9)" points="10 22 13 22 13 25 10 25"></polygon>
                        <polygon id="Rectangle-16-Copy-34" fill="url(#linearGradient-9)" opacity="0.454171317" points="10 60 13 60 13 63 10 63"></polygon>
                        <polygon id="Rectangle-16-Copy-19" fill="url(#linearGradient-9)" opacity="0.656761533" points="10 35 13 35 13 38 10 38"></polygon>
                        <polygon id="Rectangle-16-Copy-35" fill="url(#linearGradient-9)" opacity="0.454171317" points="10 73 13 73 13 76 10 76"></polygon>
                        <polygon id="Rectangle-16-Copy-2" fill="url(#linearGradient-9)" points="17 3 20 3 20 6 17 6"></polygon>
                        <polygon id="Rectangle-16-Copy-36" fill="url(#linearGradient-9)" opacity="0.656761533" points="17 41 20 41 20 44 17 44"></polygon>
                        <polygon id="Rectangle-16-Copy-12" fill="url(#linearGradient-9)" points="17 16 20 16 20 19 17 19"></polygon>
                        <polygon id="Rectangle-16-Copy-37" fill="url(#linearGradient-9)" opacity="0.454171317" points="17 54 20 54 20 57 17 57"></polygon>
                        <polygon id="Rectangle-16-Copy-20" fill="url(#linearGradient-9)" points="17 29 20 29 20 32 17 32"></polygon>
                        <polygon id="Rectangle-16-Copy-38" fill="url(#linearGradient-9)" opacity="0.454171317" points="17 67 20 67 20 70 17 70"></polygon>
                        <polygon id="Rectangle-16-Copy-6" fill="url(#linearGradient-9)" points="17 10 20 10 20 13 17 13"></polygon>
                        <polygon id="Rectangle-16-Copy-39" fill="url(#linearGradient-9)" opacity="0.656761533" points="17 48 20 48 20 51 17 51"></polygon>
                        <polygon id="Rectangle-16-Copy-13" fill="url(#linearGradient-9)" points="17 22 20 22 20 25 17 25"></polygon>
                        <polygon id="Rectangle-16-Copy-40" fill="url(#linearGradient-9)" opacity="0.454171317" points="17 60 20 60 20 63 17 63"></polygon>
                        <polygon id="Rectangle-16-Copy-21" fill="url(#linearGradient-9)" opacity="0.656761533" points="17 35 20 35 20 38 17 38"></polygon>
                        <polygon id="Rectangle-16-Copy-41" fill="url(#linearGradient-9)" opacity="0.454171317" points="17 73 20 73 20 76 17 76"></polygon>
                        <polygon id="Rectangle-16-Copy-3" fill="url(#linearGradient-9)" points="23 3 26 3 26 6 23 6"></polygon>
                        <polygon id="Rectangle-16-Copy-42" fill="url(#linearGradient-9)" opacity="0.656761533" points="23 41 26 41 26 44 23 44"></polygon>
                        <polygon id="Rectangle-16-Copy-14" fill="url(#linearGradient-9)" points="23 16 26 16 26 19 23 19"></polygon>
                        <polygon id="Rectangle-16-Copy-43" fill="url(#linearGradient-9)" opacity="0.454171317" points="23 54 26 54 26 57 23 57"></polygon>
                        <polygon id="Rectangle-16-Copy-22" fill="url(#linearGradient-9)" points="23 29 26 29 26 32 23 32"></polygon>
                        <polygon id="Rectangle-16-Copy-44" fill="url(#linearGradient-9)" opacity="0.454171317" points="23 67 26 67 26 70 23 70"></polygon>
                        <polygon id="Rectangle-16-Copy-7" fill="url(#linearGradient-9)" points="23 10 26 10 26 13 23 13"></polygon>
                        <polygon id="Rectangle-16-Copy-45" fill="url(#linearGradient-9)" opacity="0.656761533" points="23 48 26 48 26 51 23 51"></polygon>
                        <polygon id="Rectangle-16-Copy-15" fill="url(#linearGradient-9)" points="23 22 26 22 26 25 23 25"></polygon>
                        <polygon id="Rectangle-16-Copy-46" fill="url(#linearGradient-9)" opacity="0.454171317" points="23 60 26 60 26 63 23 63"></polygon>
                        <polygon id="Rectangle-16-Copy-23" fill="url(#linearGradient-9)" opacity="0.656761533" points="23 35 26 35 26 38 23 38"></polygon>
                        <polygon id="Rectangle-16-Copy-47" fill="url(#linearGradient-9)" opacity="0.454171317" points="23 73 26 73 26 76 23 76"></polygon>
                    </g>
                    <g id="Group-19-Copy-5" transform="translate(249.000000, 60.000000)">
                        <polygon id="Path-31" stroke="url(#linearGradient-11)" fill="url(#linearGradient-10)" opacity="0.773577009" points="0.0219036438 74 0.0219036438 6.63135926 0 0 4.72963277 0.037313557 8.64629815 0.037313557 11.0148244 0.037313557 13.9471585 0.037313557 16.9581325 0.037313557 27 0.037313557 27 74"></polygon>
                        <polygon id="Rectangle-16" fill="url(#linearGradient-9)" points="3 3 6 3 6 6 3 6"></polygon>
                        <polygon id="Rectangle-16-Copy-24" fill="url(#linearGradient-9)" opacity="0.656761533" points="3 38 6 38 6 41 3 41"></polygon>
                        <polygon id="Rectangle-16-Copy-8" fill="url(#linearGradient-9)" points="3 14 6 14 6 17 3 17"></polygon>
                        <polygon id="Rectangle-16-Copy-25" fill="url(#linearGradient-9)" opacity="0.454171317" points="3 49 6 49 6 52 3 52"></polygon>
                        <polygon id="Rectangle-16-Copy-16" fill="url(#linearGradient-9)" points="3 26 6 26 6 29 3 29"></polygon>
                        <polygon id="Rectangle-16-Copy-26" fill="url(#linearGradient-9)" opacity="0.454171317" points="3 61 6 61 6 64 3 64"></polygon>
                        <polygon id="Rectangle-16-Copy-4" fill="url(#linearGradient-9)" points="3 9 6 9 6 12 3 12"></polygon>
                        <polygon id="Rectangle-16-Copy-27" fill="url(#linearGradient-9)" opacity="0.656761533" points="3 43 6 43 6 46 3 46"></polygon>
                        <polygon id="Rectangle-16-Copy-9" fill="url(#linearGradient-9)" points="3 20 6 20 6 23 3 23"></polygon>
                        <polygon id="Rectangle-16-Copy-28" fill="url(#linearGradient-9)" opacity="0.454171317" points="3 55 6 55 6 58 3 58"></polygon>
                        <polygon id="Rectangle-16-Copy-17" fill="url(#linearGradient-9)" opacity="0.656761533" points="3 32 6 32 6 35 3 35"></polygon>
                        <polygon id="Rectangle-16-Copy-29" fill="url(#linearGradient-9)" opacity="0.454171317" points="3 67 6 67 6 70 3 70"></polygon>
                        <polygon id="Rectangle-16-Copy" fill="url(#linearGradient-9)" points="9 3 12 3 12 6 9 6"></polygon>
                        <polygon id="Rectangle-16-Copy-30" fill="url(#linearGradient-9)" opacity="0.656761533" points="9 38 12 38 12 41 9 41"></polygon>
                        <polygon id="Rectangle-16-Copy-10" fill="url(#linearGradient-9)" points="9 14 12 14 12 17 9 17"></polygon>
                        <polygon id="Rectangle-16-Copy-31" fill="url(#linearGradient-9)" opacity="0.454171317" points="9 49 12 49 12 52 9 52"></polygon>
                        <polygon id="Rectangle-16-Copy-18" fill="url(#linearGradient-9)" points="9 26 12 26 12 29 9 29"></polygon>
                        <polygon id="Rectangle-16-Copy-32" fill="url(#linearGradient-9)" opacity="0.454171317" points="9 61 12 61 12 64 9 64"></polygon>
                        <polygon id="Rectangle-16-Copy-5" fill="url(#linearGradient-9)" points="9 9 12 9 12 12 9 12"></polygon>
                        <polygon id="Rectangle-16-Copy-33" fill="url(#linearGradient-9)" opacity="0.656761533" points="9 43 12 43 12 46 9 46"></polygon>
                        <polygon id="Rectangle-16-Copy-11" fill="url(#linearGradient-9)" points="9 20 12 20 12 23 9 23"></polygon>
                        <polygon id="Rectangle-16-Copy-34" fill="url(#linearGradient-9)" opacity="0.454171317" points="9 55 12 55 12 58 9 58"></polygon>
                        <polygon id="Rectangle-16-Copy-19" fill="url(#linearGradient-9)" opacity="0.656761533" points="9 32 12 32 12 35 9 35"></polygon>
                        <polygon id="Rectangle-16-Copy-35" fill="url(#linearGradient-9)" opacity="0.454171317" points="9 67 12 67 12 70 9 70"></polygon>
                        <polygon id="Rectangle-16-Copy-2" fill="url(#linearGradient-9)" points="15 3 18 3 18 6 15 6"></polygon>
                        <polygon id="Rectangle-16-Copy-36" fill="url(#linearGradient-9)" opacity="0.656761533" points="15 38 18 38 18 41 15 41"></polygon>
                        <polygon id="Rectangle-16-Copy-12" fill="url(#linearGradient-9)" points="15 14 18 14 18 17 15 17"></polygon>
                        <polygon id="Rectangle-16-Copy-37" fill="url(#linearGradient-9)" opacity="0.454171317" points="15 49 18 49 18 52 15 52"></polygon>
                        <polygon id="Rectangle-16-Copy-20" fill="url(#linearGradient-9)" points="15 26 18 26 18 29 15 29"></polygon>
                        <polygon id="Rectangle-16-Copy-38" fill="url(#linearGradient-9)" opacity="0.454171317" points="15 61 18 61 18 64 15 64"></polygon>
                        <polygon id="Rectangle-16-Copy-6" fill="url(#linearGradient-9)" points="15 9 18 9 18 12 15 12"></polygon>
                        <polygon id="Rectangle-16-Copy-39" fill="url(#linearGradient-9)" opacity="0.656761533" points="15 43 18 43 18 46 15 46"></polygon>
                        <polygon id="Rectangle-16-Copy-13" fill="url(#linearGradient-9)" points="15 20 18 20 18 23 15 23"></polygon>
                        <polygon id="Rectangle-16-Copy-40" fill="url(#linearGradient-9)" opacity="0.454171317" points="15 55 18 55 18 58 15 58"></polygon>
                        <polygon id="Rectangle-16-Copy-21" fill="url(#linearGradient-9)" opacity="0.656761533" points="15 32 18 32 18 35 15 35"></polygon>
                        <polygon id="Rectangle-16-Copy-41" fill="url(#linearGradient-9)" opacity="0.454171317" points="15 67 18 67 18 70 15 70"></polygon>
                        <polygon id="Rectangle-16-Copy-3" fill="url(#linearGradient-9)" points="21 3 24 3 24 6 21 6"></polygon>
                        <polygon id="Rectangle-16-Copy-42" fill="url(#linearGradient-9)" opacity="0.656761533" points="21 38 24 38 24 41 21 41"></polygon>
                        <polygon id="Rectangle-16-Copy-14" fill="url(#linearGradient-9)" points="21 14 24 14 24 17 21 17"></polygon>
                        <polygon id="Rectangle-16-Copy-43" fill="url(#linearGradient-9)" opacity="0.454171317" points="21 49 24 49 24 52 21 52"></polygon>
                        <polygon id="Rectangle-16-Copy-22" fill="url(#linearGradient-9)" points="21 26 24 26 24 29 21 29"></polygon>
                        <polygon id="Rectangle-16-Copy-44" fill="url(#linearGradient-9)" opacity="0.454171317" points="21 61 24 61 24 64 21 64"></polygon>
                        <polygon id="Rectangle-16-Copy-7" fill="url(#linearGradient-9)" points="21 9 24 9 24 12 21 12"></polygon>
                        <polygon id="Rectangle-16-Copy-45" fill="url(#linearGradient-9)" opacity="0.656761533" points="21 43 24 43 24 46 21 46"></polygon>
                        <polygon id="Rectangle-16-Copy-15" fill="url(#linearGradient-9)" points="21 20 24 20 24 23 21 23"></polygon>
                        <polygon id="Rectangle-16-Copy-46" fill="url(#linearGradient-9)" opacity="0.454171317" points="21 55 24 55 24 58 21 58"></polygon>
                        <polygon id="Rectangle-16-Copy-23" fill="url(#linearGradient-9)" opacity="0.656761533" points="21 32 24 32 24 35 21 35"></polygon>
                        <polygon id="Rectangle-16-Copy-47" fill="url(#linearGradient-9)" opacity="0.454171317" points="21 67 24 67 24 70 21 70"></polygon>
                    </g>
                    <g id="分组-2-copy" transform="translate(190.000000, 34.000000)">
                        <g id="Group-19-Copy-2" transform="translate(0.345066, 21.048999)">
                            <polygon id="Path-31" stroke="url(#linearGradient-13)" fill="url(#linearGradient-12)" opacity="0.773577009" points="0.0229545125 77.6397516 0.0229545125 6.95752818 0 0 4.95654586 0.0391488553 9.06112067 0.0391488553 11.5432815 0.0391488553 14.6162999 0.0391488553 17.771731 0.0391488553 28.2953761 0.0391488553 28.2953761 77.6397516"></polygon>
                            <polygon id="Rectangle-16" fill="url(#linearGradient-14)" points="3.59306363 3.10559006 6.73699431 3.10559006 6.73699431 6.21118012 3.59306363 6.21118012"></polygon>
                            <polygon id="Rectangle-16-Copy-24" fill="url(#linearGradient-14)" opacity="0.656761533" points="3.59306363 39.0417036 6.73699431 39.0417036 6.73699431 42.1472937 3.59306363 42.1472937"></polygon>
                            <polygon id="Rectangle-16-Copy-8" fill="url(#linearGradient-14)" points="3.59306363 15.0842946 6.73699431 15.0842946 6.73699431 18.1898846 3.59306363 18.1898846"></polygon>
                            <polygon id="Rectangle-16-Copy-25" fill="url(#linearGradient-14)" opacity="0.454171317" points="3.59306363 51.4640639 6.73699431 51.4640639 6.73699431 54.5696539 3.59306363 54.5696539"></polygon>
                            <polygon id="Rectangle-16-Copy-16" fill="url(#linearGradient-14)" points="3.59306363 27.0629991 6.73699431 27.0629991 6.73699431 30.1685892 3.59306363 30.1685892"></polygon>
                            <polygon id="Rectangle-16-Copy-26" fill="url(#linearGradient-14)" opacity="0.454171317" points="3.59306363 63.4427684 6.73699431 63.4427684 6.73699431 66.5483585 3.59306363 66.5483585"></polygon>
                            <polygon id="Rectangle-16-Copy-4" fill="url(#linearGradient-14)" points="3.59306363 8.87311446 6.73699431 8.87311446 6.73699431 11.9787045 3.59306363 11.9787045"></polygon>
                            <polygon id="Rectangle-16-Copy-27" fill="url(#linearGradient-14)" opacity="0.656761533" points="3.59306363 45.2528838 6.73699431 45.2528838 6.73699431 48.3584738 3.59306363 48.3584738"></polygon>
                            <polygon id="Rectangle-16-Copy-9" fill="url(#linearGradient-14)" points="3.59306363 21.2954747 6.73699431 21.2954747 6.73699431 24.4010648 3.59306363 24.4010648"></polygon>
                            <polygon id="Rectangle-16-Copy-28" fill="url(#linearGradient-14)" opacity="0.454171317" points="3.59306363 57.2315883 6.73699431 57.2315883 6.73699431 60.3371783 3.59306363 60.3371783"></polygon>
                            <polygon id="Rectangle-16-Copy-17" fill="url(#linearGradient-14)" opacity="0.656761533" points="3.59306363 33.2741792 6.73699431 33.2741792 6.73699431 36.3797693 3.59306363 36.3797693"></polygon>
                            <polygon id="Rectangle-16-Copy-29" fill="url(#linearGradient-14)" opacity="0.454171317" points="3.59306363 69.6539485 6.73699431 69.6539485 6.73699431 72.7595386 3.59306363 72.7595386"></polygon>
                            <polygon id="Rectangle-16-Copy" fill="url(#linearGradient-14)" points="9.88092499 3.10559006 13.0248557 3.10559006 13.0248557 6.21118012 9.88092499 6.21118012"></polygon>
                            <polygon id="Rectangle-16-Copy-30" fill="url(#linearGradient-14)" opacity="0.656761533" points="9.88092499 39.0417036 13.0248557 39.0417036 13.0248557 42.1472937 9.88092499 42.1472937"></polygon>
                            <polygon id="Rectangle-16-Copy-10" fill="url(#linearGradient-14)" points="9.88092499 15.0842946 13.0248557 15.0842946 13.0248557 18.1898846 9.88092499 18.1898846"></polygon>
                            <polygon id="Rectangle-16-Copy-31" fill="url(#linearGradient-14)" opacity="0.454171317" points="9.88092499 51.4640639 13.0248557 51.4640639 13.0248557 54.5696539 9.88092499 54.5696539"></polygon>
                            <polygon id="Rectangle-16-Copy-18" fill="url(#linearGradient-14)" points="9.88092499 27.0629991 13.0248557 27.0629991 13.0248557 30.1685892 9.88092499 30.1685892"></polygon>
                            <polygon id="Rectangle-16-Copy-5" fill="url(#linearGradient-14)" points="9.88092499 8.87311446 13.0248557 8.87311446 13.0248557 11.9787045 9.88092499 11.9787045"></polygon>
                            <polygon id="Rectangle-16-Copy-33" fill="url(#linearGradient-14)" opacity="0.656761533" points="9.88092499 45.2528838 13.0248557 45.2528838 13.0248557 48.3584738 9.88092499 48.3584738"></polygon>
                            <polygon id="Rectangle-16-Copy-11" fill="url(#linearGradient-14)" points="9.88092499 21.2954747 13.0248557 21.2954747 13.0248557 24.4010648 9.88092499 24.4010648"></polygon>
                            <polygon id="Rectangle-16-Copy-34" fill="url(#linearGradient-14)" opacity="0.454171317" points="9.88092499 57.2315883 13.0248557 57.2315883 13.0248557 60.3371783 9.88092499 60.3371783"></polygon>
                            <polygon id="Rectangle-16-Copy-19" fill="url(#linearGradient-14)" opacity="0.656761533" points="9.88092499 33.2741792 13.0248557 33.2741792 13.0248557 36.3797693 9.88092499 36.3797693"></polygon>
                            <polygon id="Rectangle-16-Copy-2" fill="url(#linearGradient-14)" points="15.7196534 3.10559006 18.8635841 3.10559006 18.8635841 6.21118012 15.7196534 6.21118012"></polygon>
                            <polygon id="Rectangle-16-Copy-36" fill="url(#linearGradient-14)" opacity="0.656761533" points="15.7196534 39.0417036 18.8635841 39.0417036 18.8635841 42.1472937 15.7196534 42.1472937"></polygon>
                            <polygon id="Rectangle-16-Copy-12" fill="url(#linearGradient-14)" points="15.7196534 15.0842946 18.8635841 15.0842946 18.8635841 18.1898846 15.7196534 18.1898846"></polygon>
                            <polygon id="Rectangle-16-Copy-37" fill="url(#linearGradient-14)" opacity="0.454171317" points="15.7196534 51.4640639 18.8635841 51.4640639 18.8635841 54.5696539 15.7196534 54.5696539"></polygon>
                            <polygon id="Rectangle-16-Copy-20" fill="url(#linearGradient-14)" points="15.7196534 27.0629991 18.8635841 27.0629991 18.8635841 30.1685892 15.7196534 30.1685892"></polygon>
                            <polygon id="Rectangle-16-Copy-6" fill="url(#linearGradient-14)" points="15.7196534 8.87311446 18.8635841 8.87311446 18.8635841 11.9787045 15.7196534 11.9787045"></polygon>
                            <polygon id="Rectangle-16-Copy-39" fill="url(#linearGradient-14)" opacity="0.656761533" points="15.7196534 45.2528838 18.8635841 45.2528838 18.8635841 48.3584738 15.7196534 48.3584738"></polygon>
                            <polygon id="Rectangle-16-Copy-13" fill="url(#linearGradient-14)" points="15.7196534 21.2954747 18.8635841 21.2954747 18.8635841 24.4010648 15.7196534 24.4010648"></polygon>
                            <polygon id="Rectangle-16-Copy-40" fill="url(#linearGradient-14)" opacity="0.454171317" points="15.7196534 57.2315883 18.8635841 57.2315883 18.8635841 60.3371783 15.7196534 60.3371783"></polygon>
                            <polygon id="Rectangle-16-Copy-21" fill="url(#linearGradient-14)" opacity="0.656761533" points="15.7196534 33.2741792 18.8635841 33.2741792 18.8635841 36.3797693 15.7196534 36.3797693"></polygon>
                            <polygon id="Rectangle-16-Copy-41" fill="url(#linearGradient-15)" opacity="0.454171317" points="9.85353884 63.4427684 18.8635841 63.4427684 18.8635841 72.7595386 9.85353884 72.7595386"></polygon>
                            <polygon id="Rectangle-16-Copy-3" fill="url(#linearGradient-14)" points="22.0075148 3.10559006 25.1514454 3.10559006 25.1514454 6.21118012 22.0075148 6.21118012"></polygon>
                            <polygon id="Rectangle-16-Copy-42" fill="url(#linearGradient-14)" opacity="0.656761533" points="22.0075148 39.0417036 25.1514454 39.0417036 25.1514454 42.1472937 22.0075148 42.1472937"></polygon>
                            <polygon id="Rectangle-16-Copy-14" fill="url(#linearGradient-14)" points="22.0075148 15.0842946 25.1514454 15.0842946 25.1514454 18.1898846 22.0075148 18.1898846"></polygon>
                            <polygon id="Rectangle-16-Copy-43" fill="url(#linearGradient-14)" opacity="0.454171317" points="22.0075148 51.4640639 25.1514454 51.4640639 25.1514454 54.5696539 22.0075148 54.5696539"></polygon>
                            <polygon id="Rectangle-16-Copy-22" fill="url(#linearGradient-14)" points="22.0075148 27.0629991 25.1514454 27.0629991 25.1514454 30.1685892 22.0075148 30.1685892"></polygon>
                            <polygon id="Rectangle-16-Copy-44" fill="url(#linearGradient-14)" opacity="0.454171317" points="22.0075148 63.4427684 25.1514454 63.4427684 25.1514454 66.5483585 22.0075148 66.5483585"></polygon>
                            <polygon id="Rectangle-16-Copy-7" fill="url(#linearGradient-14)" points="22.0075148 8.87311446 25.1514454 8.87311446 25.1514454 11.9787045 22.0075148 11.9787045"></polygon>
                            <polygon id="Rectangle-16-Copy-45" fill="url(#linearGradient-14)" opacity="0.656761533" points="22.0075148 45.2528838 25.1514454 45.2528838 25.1514454 48.3584738 22.0075148 48.3584738"></polygon>
                            <polygon id="Rectangle-16-Copy-15" fill="url(#linearGradient-14)" points="22.0075148 21.2954747 25.1514454 21.2954747 25.1514454 24.4010648 22.0075148 24.4010648"></polygon>
                            <polygon id="Rectangle-16-Copy-46" fill="url(#linearGradient-14)" opacity="0.454171317" points="22.0075148 57.2315883 25.1514454 57.2315883 25.1514454 60.3371783 22.0075148 60.3371783"></polygon>
                            <polygon id="Rectangle-16-Copy-23" fill="url(#linearGradient-14)" opacity="0.656761533" points="22.0075148 33.2741792 25.1514454 33.2741792 25.1514454 36.3797693 22.0075148 36.3797693"></polygon>
                            <polygon id="Rectangle-16-Copy-47" fill="url(#linearGradient-14)" opacity="0.454171317" points="22.0075148 69.6539485 25.1514454 69.6539485 25.1514454 72.7595386 22.0075148 72.7595386"></polygon>
                        </g>
                        <polygon id="三角形" stroke="url(#linearGradient-17)" fill="url(#linearGradient-16)" points="14.3588162 0 28.9855072 21.0489993 0 21.0067731"></polygon>
                        <circle id="椭圆形" stroke="url(#linearGradient-19)" fill="url(#linearGradient-18)" cx="14.4927536" cy="14.1476881" r="4.48585231"></circle>
                        <rect id="矩形" fill="#1FF6FC" x="14.1476881" y="12.0772947" width="1" height="2.41545894"></rect>
                        <polygon id="矩形-copy" fill="#1FF6FC" transform="translate(15.182885, 14.320221) rotate(90.000000) translate(-15.182885, -14.320221) " points="15.010352 13.2850242 15.3554175 13.2850242 15.3554175 15.3554175 15.010352 15.3554175"></polygon>
                    </g>
                    <g id="分组-3-copy-2" transform="translate(118.000000, 74.000000)">
                        <polygon id="Fill-1" fill="#F5F5F5" points="5.484 42.3227742 57.2845 42.3227742 57.2845 34.4904933 5.484 34.4904933"></polygon>
                        <polygon id="Fill-2" fill="#E6E6F2" points="5.4845 42.3227742 32.611 42.3227742 32.611 34.4904933 5.4845 34.4904933"></polygon>
                        <polygon id="Fill-3" fill="#0065FF" points="58.05135 33.4826022 57.28435 33.4826022 3.64435 33.4826022 3.64435 34.4904449 57.28435 34.4904449 57.28435 41.8192876 3.64435 41.8192876 3.64435 42.8266472 57.28435 42.8266472 58.05135 42.8266472 58.77085 42.8266472 58.77085 42.1285011 58.77085 41.8192876 58.77085 34.4904449 58.77085 34.1812315 58.77085 33.4826022"></polygon>
                        <polygon id="Fill-4" fill="#F5F5F5" points="32.0215 32.6989876 63.406 32.6989876 63.406 23.2684596 32.0215 23.2684596"></polygon>
                        <g id="分组" transform="translate(0.000000, 0.309842)">
                            <path d="M32.552,33.172809 L0.4845,33.172809 C0.217,33.172809 0,32.9631236 0,32.7041573 L0,22.3276292 C0,22.0691461 0.217,21.8594607 0.4845,21.8594607 L32.552,21.8594607 L32.552,33.172809 Z" id="Fill-5" fill="#3B40BF"></path>
                            <polygon id="Fill-7" fill="#3B40BF" points="64.7505 23.4268348 64.7505 21.859509 32.835 21.859509 31.2075 21.859509 31.2075 23.4268348 31.2075 31.6055315 31.2075 32.797936 31.2075 33.1728573 64.7505 33.1728573 64.7505 31.6055315 32.835 31.6055315 32.835 23.4268348"></polygon>
                            <polygon id="Fill-9" fill="#2692E8" points="4.93 21.8594607 60.5045 21.8594607 60.5045 11.4616742 4.93 11.4616742"></polygon>
                            <g transform="translate(13.500000, 11.112360)"></g>
                            <g transform="translate(47.500000, 11.112360)"></g>
                            <polygon id="Fill-19" fill="#F5F5F5" points="1.3445 10.7031348 32.729 10.7031348 32.729 1.2721236 1.3445 1.2721236"></polygon>
                            <path d="M32.19825,11.4868944 L64.26575,11.4868944 C64.53325,11.4868944 64.75025,11.277209 64.75025,11.0182427 L64.75025,0.641714607 C64.75025,0.383231461 64.53325,0.173546067 64.26575,0.173546067 L32.19825,0.173546067 L32.19825,11.4868944 Z" id="Fill-20" fill="#FABB53"></path>
                            <polygon id="Fill-21" fill="#FABB53" points="31.9153 0.173546067 -0.0002 0.173546067 -0.0002 1.74087191 31.9153 1.74087191 31.9153 9.91956854 -0.0002 9.91956854 -0.0002 11.4868944 33.5428 11.4868944 33.5428 11.111973 33.5428 9.91956854 33.5428 1.74087191 33.5428 0.173546067"></polygon>
                            <polygon id="Fill-22" fill="#F2AA32" points="23.57665 11.1122629 20.72265 10.0131056 17.86815 11.1122629 17.86815 4.74294831 23.57665 4.74294831"></polygon>
                        </g>
                        <polygon id="Fill-11" fill="#0447A7" points="13.516 22.1693022 15.2145 22.1693022 15.2145 11.7715157 13.516 11.7715157"></polygon>
                        <polygon id="Fill-13" fill="#0447A7" points="17.019 22.1693022 18.7175 22.1693022 18.7175 11.7715157 17.019 11.7715157"></polygon>
                        <polygon id="Fill-15" fill="#0447A7" points="47.7135 22.1693022 49.412 22.1693022 49.412 11.7715157 47.7135 11.7715157"></polygon>
                        <polygon id="Fill-17" fill="#0447A7" points="51.217 22.1693022 52.915 22.1693022 52.915 11.7715157 51.217 11.7715157"></polygon>
                    </g>
                    <path d="M80.2345361,123.036303 C70.2743859,118.420912 62.274774,94.1754777 90.1946862,89.7317879 C118.114599,85.288098 144.674998,102.282679 152.689975,108.414102 C158.033291,112.501718 168.012885,114.826814 182.628764,115.389392 C181.22827,117.997108 195.23151,115.055395 224.638476,106.564253 C268.748923,93.8275417 306.876695,103.468711 311.98254,108.414102 C317.088391,113.359493 317.092233,119.470672 300.994366,124.886151 C284.896504,130.301631 239.287707,134.460616 189.094605,134.975821 C138.901497,135.491025 90.1946862,127.651693 80.2345361,123.036303 Z" id="Path-41-Copy-3" fill="url(#linearGradient-20)" opacity="0.701520647"></path>
                    <path d="M37.6862549,130.598269 C27.9402675,116.539842 23.4815767,89.4056456 49.0985808,84.6694337 C74.7155855,79.9332219 105.136942,101.640632 112.989243,108.573162 C120.841543,115.505691 132.560133,117.595783 145.015975,117.595783 C157.471825,117.595783 173.990446,107.038001 201.708359,92.7099814 C229.426272,78.381962 275.510684,86.9207703 271.787569,108.66473 C269.305491,123.160703 257.594468,131.139297 236.654501,132.600512 C205.042197,134.110093 174.496027,133.44268 145.015975,130.598269 C100.795906,126.331654 47.4322429,144.656697 37.6862549,130.598269 Z" id="Path-41-Copy-4" fill="url(#linearGradient-21)" opacity="0.3984375"></path>
                    <g id="分组" transform="translate(0.000000, 22.000000)">
                        <path d="M21.0904556,32 C21.0904556,32 19.571421,21.7652091 28.9831912,11.0072787 C28.9863771,11.0037818 28.9908373,10.9967879 28.9914745,11.0016836 C29.0029437,11.2038057 29.4878369,20.4825382 21.0904556,32" id="Fill-1" fill="#FF992C"></path>
                        <path d="M19.1581003,32 C19.2307593,32 19.2950052,31.9568298 19.3118315,31.8924067 C19.3309523,31.8213419 21.1994369,24.7022498 24.983061,18.200159 C25.0220674,18.1324151 24.9914741,18.0500597 24.9142261,18.0155235 C24.8362132,17.9803233 24.741374,18.0068895 24.7023676,18.0759618 C20.9003876,24.6092679 19.022725,31.7609037 19.0036042,31.8326326 C18.9852482,31.9056898 19.0387865,31.9807395 19.1236828,31.9966792 C19.1343905,31.9986717 19.1466278,32 19.1581003,32" id="Fill-3" fill="#FFFFFF"></path>
                        <path d="M34,56.7142099 C34,56.7142099 26.4583531,49.8539974 12,52.684864 C14.1609065,54.2077279 21.3005082,58.0766255 34,56.7142099" id="Fill-5" fill="#FF992C"></path>
                        <path d="M33.8579207,57 C33.9152916,57 33.9705889,56.9704792 33.9913254,56.9227917 C34.0182828,56.8614791 33.9802659,56.7944895 33.906997,56.7723489 C33.8351105,56.7513437 26.7052147,54.6383328 19.1564418,54.0042025 C19.0776431,53.9831973 19.0078303,54.0445098 19.0009181,54.1086608 C18.9919323,54.1733796 19.0499945,54.2307182 19.1274107,54.2375307 C26.6409316,54.8693902 33.7383403,56.9716146 33.8088443,56.9926198 C33.8254335,56.9982969 33.8420227,57 33.8579207,57" id="Fill-7" fill="#FFFFFF"></path>
                        <g transform="translate(16.000000, 23.000000)">
                            <mask id="mask-23" fill="white">
                                <use xlink:href="#path-22"></use>
                            </mask>
                            <g id="Clip-10"></g>
                            <path d="M49.3015493,67.0002821 C49.3452113,67.0002821 49.3888732,66.9798295 49.4170423,66.9417453 C49.4656338,66.8768611 49.4522535,66.7851768 49.3888732,66.7372189 C49.303662,66.67304 40.8064789,60.20084 30.594507,48.8094295 C21.1712676,38.2974821 8.31985915,21.3288505 0.606478873,0.180124211 C0.579014085,0.103955789 0.493098592,0.0651663158 0.42056338,0.0933768421 C0.345211268,0.120882105 0.305774648,0.204808421 0.333943662,0.280271579 C8.06352113,21.4762505 20.9416901,38.47944 30.3832394,49.0104295 C40.6135211,60.4215874 49.1290141,66.9064821 49.2142254,66.9699558 C49.2402817,66.9904084 49.2705634,67.0002821 49.3015493,67.0002821" id="Fill-9" fill="#91C7FD" mask="url(#mask-23)"></path>
                        </g>
                        <g transform="translate(13.000000, 0.000000)">
                            <mask id="mask-25" fill="white">
                                <use xlink:href="#path-24"></use>
                            </mask>
                            <g id="Clip-12"></g>
                            <path d="M4.164825,23.1523765 C6.568575,10.3349647 2.735325,2.6472 1.837575,1.07378824 C-1.772925,13.7013176 3.075075,21.5944941 4.164825,23.1523765 M4.128825,23.6140235 C4.059825,23.5307294 -2.636175,15.0968471 1.639575,0.654494118 C1.655325,0.599435294 1.704825,0.557788235 1.764825,0.549317647 C1.833825,0.538023529 1.885575,0.566964706 1.918575,0.616376471 C1.973325,0.696847059 7.272075,8.83355294 4.403325,23.5512 C4.392075,23.6083765 4.346325,23.6535529 4.287075,23.6669647 C4.275075,23.6697882 4.263075,23.6712 4.251075,23.6712 C4.203825,23.6712 4.158075,23.6507294 4.128825,23.6140235" id="Fill-11" fill="#91C7FD" mask="url(#mask-25)"></path>
                        </g>
                        <path d="M16.8303573,24 C16.8451886,24 16.8608438,23.9986454 16.8756751,23.9952587 C16.9671345,23.9742617 17.0190438,23.8963695 16.9935011,23.821864 C16.9696063,23.7500677 14.5677674,16.5704416 14.3395309,9.13749661 C14.3370591,9.06028177 14.2612549,9 14.1697955,9 L14.1656757,9 C14.0717444,9.00203197 13.9975882,9.06637768 14.00006,9.14359252 C14.2282965,16.6137903 16.6416709,23.8259279 16.6672136,23.8977242 C16.6886365,23.9593606 16.7562011,24 16.8303573,24" id="Fill-13" fill="#91C7FD"></path>
                        <path d="M27.3052113,45.5081823 C36.898756,36.4599984 38.4365533,28.282654 38.6683058,26.471616 C28.3138042,34.6405533 27.3846281,43.6565098 27.3052113,45.5081823 M27.092952,45.9894911 C27.0388042,45.967072 27.0034276,45.9166292 27.0005398,45.859881 C26.9969299,45.7554924 26.8077736,35.2963102 38.7448347,26.0393489 C38.7946507,25.9973132 38.8719015,25.9868043 38.9260493,26.0183311 C38.9751433,26.0463549 39.0033002,26.1003007 38.9996903,26.1549471 C38.9729774,26.5423761 38.2192402,35.7530981 27.2517855,45.9607667 C27.2243506,45.9873893 27.1868082,46 27.1492657,46 C27.1304945,46 27.1110012,45.9971976 27.092952,45.9894911" id="Fill-15" fill="#91C7FD"></path>
                        <path d="M27.1574652,46 C27.2216182,46 27.2819526,45.9641591 27.3048644,45.9044243 C27.3346497,45.8334453 30.2536127,38.5900746 34.9726793,32.2279678 C35.0215578,32.1619082 35.0032284,32.0712518 34.9306743,32.0248695 C34.8596478,31.9805955 34.761127,31.996759 34.7122485,32.0628187 C29.9710339,38.4565498 27.0398513,45.7315448 27.0100659,45.8046321 C26.9795169,45.8798277 27.0207581,45.9641591 27.1032406,45.9908641 C27.1208063,45.997189 27.1391357,46 27.1574652,46" id="Fill-17" fill="#91C7FD"></path>
                        <path d="M42.1725793,66 C42.1725793,66 38.0411059,56.3042087 45.2883209,43 C45.2883209,43 48.2233495,52.0842677 42.1725793,66" id="Fill-19" fill="#88B9F3"></path>
                        <path d="M41.1801086,66 L41.1849883,66 C41.2785158,65.9973084 41.3500847,65.933382 41.3484581,65.8559974 C41.345205,65.7819774 41.092274,58.3853584 42.9961694,51.1690792 C43.0156881,51.0943862 42.9587583,51.0196933 42.8676707,51.0035435 C42.7773962,50.9860478 42.6879351,51.0351702 42.6692296,51.110536 C40.7547616,58.3597879 41.0101324,65.7907252 41.0125723,65.8647452 C41.0150121,65.9401111 41.0898342,66 41.1801086,66" id="Fill-21" fill="#2060D0"></path>
                        <g transform="translate(0.000000, 33.000000)">
                            <mask id="mask-27" fill="white">
                                <use xlink:href="#path-26"></use>
                            </mask>
                            <g id="Clip-24"></g>
                            <path d="M22.3485424,4.303275 C22.3485424,4.303275 14.2058455,-2.318475 0.000906060606,2.098275 C0.000209090909,2.099025 -0.000487878788,2.099775 0.000209090909,2.099775 C2.29672424,3.524025 9.77451212,6.980025 22.3485424,4.303275" id="Fill-23" fill="#88B9F3" mask="url(#mask-27)"></path>
                        </g>
                        <path d="M22.8592773,38 C22.9218712,38 22.9790222,37.9448235 22.9953511,37.8629487 C23.0150818,37.7641649 22.9701774,37.6636013 22.8953368,37.6377929 C22.8232177,37.6119846 15.611308,35.1290418 8.14289923,35 L8.14017776,35 C8.06329608,35 8.00138251,35.0809849 8,35.1824384 C7.99866104,35.283892 8.06125497,35.3675467 8.13813665,35.3693266 C15.5732074,35.4965885 22.751779,37.968852 22.8232177,37.9928805 C22.8354644,37.9973302 22.8470307,38 22.8592773,38" id="Fill-25" fill="#91C7FD"></path>
                        <path d="M29.5260734,75.7221293 C31.8760565,77.059776 39.1511624,80.2687807 51.4809624,77.7566697 C49.9190272,76.6952355 42.0534163,72.001121 29.5260734,75.7221293 M29.0750522,75.8119545 C29.0311537,75.7850069 29,75.734106 29,75.6772167 C29,75.6061051 29.0460226,75.5454731 29.10833,75.5267595 C43.4348014,71.1200857 51.8583474,77.6473824 51.9418961,77.7140028 C51.9872106,77.7506814 52.0091599,77.8128105 51.9964151,77.8719454 C51.9836704,77.9318288 51.9383559,77.9789871 51.8824208,77.9902152 C48.4371005,78.7163021 45.3762458,79 42.6977323,79 C35.0848915,79 30.558395,76.7117034 29.0750522,75.8119545" id="Fill-27" fill="#91C7FD"></path>
                        <path d="M51.8593218,78 C51.9218959,78 51.9790288,77.945111 51.9953525,77.8623275 C52.015077,77.7615477 51.9701868,77.659868 51.8953699,77.6337732 C51.8232737,77.6085783 44.6088841,75.1133773 37.1414774,75 L37.1407973,75 C37.0639399,75 37.0013658,75.0809838 37,75.1844631 C36.9993253,75.2861428 37.0618995,75.3707259 37.139437,75.3725255 C44.5707955,75.4859028 51.7518575,77.9703059 51.8232737,77.9946011 C51.8348363,77.9991002 51.847079,78 51.8593218,78" id="Fill-29" fill="#91C7FD"></path>
                    </g>
                    <g id="分组-6" transform="translate(107.000000, 0.000000)">
                        <rect id="矩形" fill="#EEF3FF" x="0" y="0" width="94" height="134" rx="4"></rect>
                        <rect id="矩形" fill="#5890F4" opacity="0.2992234" x="11" y="23" width="72" height="2"></rect>
                        <rect id="矩形-copy-2" fill="#5890F4" opacity="0.2992234" x="11" y="45" width="72" height="2"></rect>
                        <rect id="矩形-copy-3" fill="#5890F4" opacity="0.2992234" x="11" y="67" width="72" height="2"></rect>
                        <rect id="矩形-copy-4" fill="#5890F4" opacity="0.2992234" x="11" y="89" width="72" height="2"></rect>
                        <rect id="矩形-copy-5" fill="#5890F4" opacity="0.2992234" x="11" y="111" width="36" height="2"></rect>
                    </g>
                    <g id="分组-39" transform="translate(120.500000, 76.000000) scale(-1, 1) translate(-120.500000, -76.000000) translate(75.000000, 17.000000)">
                        <g id="分组-31">
                            <g id="放大镜-(1)-copy" transform="translate(4.441833, 4.432411)" fill="#FFFFFF" opacity="0.301850818">
                                <ellipse id="椭圆形" cx="23.4782609" cy="23.1118577" rx="23.4782609" ry="23.1118577"></ellipse>
                            </g>
                            <path d="M69.5124244,59.5293439 L51.5783624,41.9120679 C54.0173948,37.7918985 55.4521198,32.9613551 55.4521198,27.7756247 C55.4521198,12.4315456 43.0417488,0 27.761928,0 C12.4821072,0 0,12.4315456 0,27.7756247 C0,43.1197038 12.4103709,55.5512494 27.761928,55.5512494 C33.2138829,55.5512494 38.3071565,53.9884265 42.5395951,51.2179678 L60.4019209,68.9062812 C61.4062283,69.9008048 63.056162,69.9008048 64.0604695,68.9062812 L69.5841606,63.2232889 C70.5884681,62.2287653 70.5167318,60.594905 70.3015231,59.5293439 L69.5124244,59.5293439 Z M6.38452608,27.7756247 C6.38452608,15.9834157 15.9254471,6.39336629 27.761928,6.39336629 C39.5984089,6.39336629 49.1393299,15.9834157 49.1393299,27.8466621 C49.1393299,39.7099084 39.5266727,49.2289205 27.761928,49.2289205 C15.9971833,49.2289205 6.38452608,39.5678336 6.38452608,27.7756247 Z" id="形状-copy-2" fill="#FFBD41" fill-rule="nonzero"></path>
                        </g>
                        <g id="分组-9-copy-3" transform="translate(55.565217, 55.565217)">
                            <g id="分组-16-copy" transform="translate(23.371014, 45.885870) scale(-1, 1) translate(-23.371014, -45.885870) translate(12.371014, 29.885870)">
                                <polygon id="Leg" fill="#1F28CF" points="6.84668192 0 11.387405 16.6083721 14.7003635 28.8496377 17.1167048 28.8496377 13.5962129 0"></polygon>
                                <path d="M5.96914501,0 C5.86745319,8.56014758 5.52068598,13.2290847 5.41391373,14.0068113 C5.30714149,14.7845379 3.69268918,19.7321467 0.570556827,28.8496377 L2.99424547,28.8496377 C6.96895882,20.102963 9.18774551,15.1553542 9.65060553,14.0068113 C10.1134655,12.8582684 11.5418967,8.18933132 13.6933638,0 L5.96914501,0 Z" id="Leg" fill="#2B44FF"></path>
                                <g id="Accessories/Shoe/Flat-Pointy" transform="translate(0.000000, 25.964674)" fill="#191847">
                                    <path d="M0,5 L0.114754098,2.375 L2.52459016,2.375 C3.66726595,3.25 5.15906923,3.95833333 7,4.5 L7,5 L2.63934426,5 L1.14754098,4.75 L1.14754098,5 L0,5 Z" id="Shoe"></path>
                                </g>
                                <g id="Accessories/Shoe/Flat-Pointy" transform="translate(14.263921, 25.964674)" fill="#191847">
                                    <path d="M0,5 L0.114754098,2.375 L2.52459016,2.375 C3.66726595,3.25 5.15906923,3.95833333 7,4.5 L7,5 L2.63934426,5 L1.14754098,4.75 L1.14754098,5 L0,5 Z" id="Shoe"></path>
                                </g>
                            </g>
                            <g id="分组-14-copy-3" transform="translate(15.921739, 17.608696) scale(-1, 1) translate(-15.921739, -17.608696) translate(0.660870, 0.000000)">
                                <g id="分组-2">
                                    <g id="Head/Front-Copy" transform="translate(7.299487, 12.664308) rotate(-10.000000) translate(-7.299487, -12.664308) translate(3.777748, 6.403438)">
                                        <g id="Head" transform="translate(0.565821, 0.977540)" fill="#FFD9D8">
                                            <path d="M5.39557135,1.27554081 C6.21527706,2.7839022 6.11787472,6.60998593 5.05847812,6.87957218 C4.63613447,6.98704661 3.73657766,6.72390213 2.82088592,6.17920525 L3.39492314,10.1943468 L0,10.1943468 L1.16838301,4.81608251 C0.516767052,4.06083403 0.0757817878,3.13532262 0.149486435,2.09828339 C0.361888937,-0.890262607 4.57586564,-0.232820566 5.39557135,1.27554081 Z"></path>
                                        </g>
                                        <path d="M1.47369913,6.46677969 C1.04760285,4.59534043 -0.166275879,3.31964299 0.0191125212,2.48318968 C0.142704788,1.92555413 0.47211523,1.57878016 1.00734385,1.44286777 C1.28415902,0.337321278 2.17694475,-0.132910737 3.68570104,0.0321717293 C5.94883547,0.279795429 7.33012675,1.20764727 6.73361531,3.24932624 C6.18528102,3.24932624 5.52332435,3.05355411 4.60797586,3.38897483 C4.31753947,3.49540246 4.10981086,3.82544391 3.98479001,4.37909917 L3.57114764,4.37909917 C3.1696903,3.72206174 2.77385079,3.48061842 2.38362911,3.6547692 C1.99340743,3.82891997 1.90470369,4.25193291 2.11751791,4.923808 L1.91375722,6.46677969 L1.47369913,6.46677969 Z" id="Hair" fill="#191847"></path>
                                    </g>
                                    <g id="Body/Long-Sleeve-1-Copy" transform="translate(0.425322, 0.000000)">
                                        <path d="M20.508505,11.8316087 L25.708677,13.862527 C26.970908,13.8685587 28.0606393,14.0029481 28.9778709,14.2656951 C29.2103421,14.3858763 29.5289216,14.6694414 28.7397308,14.8142159 C27.95054,14.9589905 27.1271853,15.1466487 27.0920293,15.4377558 C27.0568732,15.7288629 27.6102127,15.9198378 27.4910784,16.3315434 C27.4116554,16.6060138 26.5712339,16.192195 24.9698138,15.0900871 L20.1925553,14.4478058 L20.508505,11.8316087 Z" id="Arm" fill="#FFD9D8" transform="translate(24.717532, 14.122620) scale(1, -1) rotate(12.000000) translate(-24.717532, -14.122620) "></path>
                                        <g id="分组" transform="translate(13.036573, 11.656786) rotate(-100.000000) translate(-13.036573, -11.656786) translate(2.862659, 3.439394)">
                                            <path d="M11.0270894,10.3915943 L16.2321307,12.3833711 C17.4986022,12.3815279 18.591183,12.5086873 19.5098732,12.7648492 C19.7423775,12.8831824 20.0602556,13.1638181 19.2674805,13.3130203 C18.4747054,13.4622225 17.6473812,13.6543778 17.6102774,13.9447316 C17.5731736,14.2350854 18.1271891,14.4219793 18.0050649,14.8330515 C17.9236488,15.1070996 17.0829779,14.6998925 15.4830524,13.6114301 L10.6936356,13.0010218 L11.0270894,10.3915943 Z" id="Arm" fill="#FFD9D8" transform="translate(15.233653, 12.653663) rotate(15.000000) translate(-15.233653, -12.653663) "></path>
                                            <path d="M3.1327933,1.92145394 C6.67692322,5.65452158 11.0064324,8.08406803 16.9149627,10.2324511 L15.5929091,12.834387 C9.49127746,12.284791 6.22972098,11.8407001 3.68380748,8.09866717 C3.04483481,7.15949278 1.9073404,3.92457925 1.22506279,2.24497637 L3.1327933,1.92145394 Z" id="Coat-Back" fill="#2026A2" transform="translate(9.070013, 7.377920) rotate(15.000000) translate(-9.070013, -7.377920) "></path>
                                        </g>
                                        <path d="M2.00474503,31.2475453 L12.8967901,31.2475453 C10.4295595,23.818992 9.16920449,18.7204948 9.11572497,15.9520537 C9.11299853,15.8109159 8.84896364,15.5622112 8.73214882,15.5947813 C7.87789466,15.8329629 6.96377529,15.7439047 5.98979071,15.3276065 C3.40762417,19.4274665 2.51466621,24.4752243 2.00474503,31.2475453 Z" id="Shirt" fill="#F2F2F2"></path>
                                        <path d="M23.5350634,13.4129249 L24.1104853,16.2614513 C19.4848279,19.2063277 13.1539651,22.2309343 8.77385333,21.8069914 C10.4210518,28.9087911 10.3055187,34.6837337 6.58894827,34.6837337 L6.58894827,34.6837337 L0.781317548,34.6837337 C-0.141068273,28.5640507 2.28314216,20.0789562 4.5305615,15.7991431 C4.61638368,15.6357099 4.7991077,15.3276065 5.22949774,15.3276065 L5.22949774,15.3276065 L6.91702389,15.3276065 C7.01378845,15.6152395 7.10875331,15.9028408 7.2018146,16.1901591 L7.20198347,16.1879776 C14.0965311,15.6077871 19.5408911,14.6827696 23.5350634,13.4129249 Z" id="Coat-Front" fill="#093896"></path>
                                    </g>
                                </g>
                            </g>
                        </g>
                    </g>
                    <g id="分组-copy-3" transform="translate(154.000000, 116.000000)">
                        <polygon id="Fill-1" fill="#0447A7" points="84.7431148 0.546284153 84.7431148 18.4708743 99.8103279 9.50912568"></polygon>
                        <polygon id="Fill-2" fill="#0065FF" points="84.7431148 0.546284153 5.69065574 0.565409836 8.04803279 5.81568306 87.0999454 5.79601093"></polygon>
                        <polygon id="Fill-3" fill="#0065FF" points="8.04786885 13.2397268 5.6904918 18.4894536 84.7429508 18.4708743 87.0997814 13.2211475"></polygon>
                        <polygon id="Fill-4" fill="#0447A7" points="2.35721311 0.565464481 -0.000163934426 5.8157377 -0.000163934426 13.2397814 2.35721311 18.4895082 5.69054645 18.4895082 8.0479235 13.2397814 8.0479235 5.8157377 5.69054645 0.565464481"></polygon>
                        <polygon id="Fill-5" fill="#2692E8" points="8.04808743 13.2395628 87.1 13.2209836 87.1 5.79639344 8.04808743 5.81551913"></polygon>
                        <g id="分组" transform="translate(1.639344, 0.456940)">
                            <path d="M0.0946994536,9.07060109 C0.0946994536,11.4689617 1.00234973,13.4126776 2.12147541,13.4126776 C3.24060109,13.4126776 4.14770492,11.4689617 4.14770492,9.07060109 C4.14770492,6.67224044 3.24060109,4.72852459 2.12147541,4.72852459 C1.00234973,4.72852459 0.0946994536,6.67224044 0.0946994536,9.07060109" id="Fill-6" fill="#EAF4FF"></path>
                            <polygon id="Fill-8" fill="#0447A7" points="98.170929 9.05191257 85.4605464 12.7639344 85.4605464 5.33934426"></polygon>
                            <polygon id="Fill-10" fill="#0447A7" points="98.170929 9.05191257 83.1037158 0.0896174863 85.4605464 5.33934426"></polygon>
                            <path d="M95.5563934,9.05300546 C95.5563934,9.50819672 95.5236066,9.94699454 95.4624044,10.3628415 C95.4323497,10.5666667 95.6525683,10.7103825 95.8285246,10.6060109 L98.1394536,9.23005464 C98.271694,9.14699454 98.271694,8.95901639 98.1394536,8.87595628 L95.8285246,7.5 C95.6525683,7.39562842 95.4323497,7.53934426 95.4624044,7.7431694 C95.5236066,8.15901639 95.5563934,8.59781421 95.5563934,9.05300546" id="Fill-12" fill="#EAF4FF"></path>
                        </g>
                    </g>
                    <g id="Big-Leaf-Plant-Copy" transform="translate(266.000000, 100.000000)">
                        <g id="Big-Ass-Leaf" transform="translate(4.000000, 0.000000)">
                            <path d="M3.91320413,0.180475858 C4.35701179,0.126634067 4.83068936,0.145639999 5.2434175,0.319594787 C6.12104166,0.689539744 6.37050772,1.71909902 6.35847279,2.55592588 C6.34549819,3.45662171 6.15288115,4.44040926 6.84248278,5.16612168 C7.15947894,5.49976235 7.55379751,5.75509464 7.86506649,6.09486158 C8.19766248,6.45794836 8.45863271,6.87339181 8.65186165,7.31951214 C9.00665292,8.13895062 9.18079067,9.10259961 8.85635346,9.96219596 C8.5706922,10.7190201 7.85200039,11.4021188 8.00729226,12.2627011 C8.16927534,13.1604487 9.08076492,13.8467843 9.65063217,14.5154653 C10.2955609,15.2722028 10.8893651,16.2393827 10.9869137,17.2317644 C11.0804531,18.182819 10.6635561,19.144674 10.0237529,19.8635935 C8.74542466,21.3001136 6.82389898,22.0043432 4.88641133,22 C4.06380683,21.9980875 3.13245152,21.9611952 2.422566,21.5222329 C2.20316559,21.386553 2.08741777,21.2343323 1.95699038,21.022724 C1.84004823,20.8329728 1.68556854,20.7095477 1.5067614,20.5752798 C1.11392272,20.2803683 0.830223508,19.882899 0.649173796,19.4379737 C-0.0538813758,17.7098497 0.508039919,15.5719484 1.49215803,14.0373608 C1.72535057,13.6737857 1.916269,13.3239174 1.80298311,12.8905572 C1.68476585,12.4381816 1.39421351,12.0301635 1.13722326,11.6413083 C0.883276044,11.2569981 0.59336148,10.8903713 0.394877933,10.4748477 C0.186998899,10.0395571 0.128461829,9.58373472 0.165191725,9.10734541 C0.234223048,8.21247919 0.623240233,7.38668931 1.1740039,6.66701926 C1.70449123,5.97381958 2.3273719,5.31053483 2.32876759,4.4022344 C2.33030024,3.43955967 1.68218375,2.58320113 1.95829095,1.60445833 C2.0726174,1.19917868 2.30224643,0.783359318 2.67231054,0.540388158 C3.02720895,0.307360948 3.4958083,0.231113421 3.91320413,0.180475858 Z" id="leaf" fill="#A1FEFD"></path>
                            <path d="M3.62320784,1.71945091 C3.63153036,1.59016004 3.7859752,1.51261618 3.90755754,1.54635401 C4.06759339,1.59078418 4.06451561,1.73927255 4.06029046,1.87156406 C4.04733851,2.27819667 4.10660928,2.67337719 4.20504528,3.06792614 C4.40963389,3.88823732 4.78774116,4.64401929 5.08729696,5.43199321 C5.38659168,6.21930748 5.52708693,7.03218566 5.3515081,7.86527656 C5.18598963,8.65076511 4.92595505,9.4158947 4.75656287,10.2023747 C4.60725741,10.8955558 4.44838925,11.6265542 4.67576238,12.3179702 C4.89455125,12.9835084 5.37826332,13.5255164 5.72657794,14.1269683 C6.44762943,15.3720119 6.76752023,16.7532391 6.81030707,18.1746436 C6.830136,18.8346893 6.81227955,19.5008044 6.65807817,20.1481656 C6.569325,20.5209178 6.45005568,21.0246759 6.12838255,21.2820251 C5.98005083,21.4007023 5.72635648,21.4417391 5.60151289,21.2659916 C5.48430294,21.1011545 5.58712794,20.84597 5.62433807,20.6702794 C5.78548491,19.9097434 5.81790402,19.1325057 5.77932316,18.3602609 C5.74198311,17.6122404 5.65298194,16.8654691 5.41590138,16.1510784 C5.19585883,15.4881136 4.86157347,14.8926423 4.46813978,14.312689 C4.0672336,13.721676 3.65045644,13.129402 3.48480343,12.4291125 C3.31649511,11.7178668 3.45322873,10.9941515 3.63606035,10.2964891 C3.82940925,9.5585591 4.08266604,8.84179809 4.34448843,8.12386189 C4.59964334,7.42428659 4.69008325,6.76236395 4.54922705,6.03017712 C4.27097241,4.58361997 3.52616654,3.2258641 3.62320784,1.71945091 Z" id="middle-thing" fill="#FFFFFF"></path>
                        </g>
                        <g id="Big-Ass-Leaf" transform="translate(4.000000, 2.000000)">
                            <path d="M13.9834357,0.238666951 C14.5287972,0.401018607 15.0704435,0.662965977 15.4592021,1.07370699 C16.285832,1.94716127 16.0321993,3.26728797 15.5758674,4.23149505 C15.0846824,5.26928241 14.3403488,6.31242883 14.7599438,7.50316593 C14.9527994,8.05057638 15.2771033,8.54635065 15.4600503,9.0979638 C15.655511,9.68741815 15.7398754,10.3013029 15.7291269,10.9164477 C15.7092283,12.0462844 15.4026984,13.2518354 14.5704766,14.0842171 C13.8377386,14.8170736 12.6396184,15.2451223 12.3656159,16.3216221 C12.0797623,17.4446043 12.7786033,18.7020665 13.0888883,19.766032 C13.440054,20.9701166 13.6204433,22.3923159 13.209523,23.5923916 C12.8157771,24.7425176 11.8218173,25.646639 10.6966453,26.1561779 C8.44848681,27.1743737 5.83825724,27.0177081 3.58397203,26.0313429 C2.62688493,25.612513 1.56163546,25.09802 0.966850609,24.2294969 C0.783030236,23.961053 0.728676827,23.7259284 0.688616166,23.4145088 C0.652708876,23.1352626 0.538024214,22.9139095 0.400736482,22.6676626 C0.099076292,22.1267458 -0.0212610028,21.5221902 0.00304096228,20.9145997 C0.0976132001,18.5547502 1.88209597,16.3604529 3.83942264,15.079535 C4.30319392,14.776077 4.71048363,14.467101 4.80759726,13.9072415 C4.9090181,13.322836 4.78627466,12.702578 4.6924922,12.1215382 C4.59985166,11.5473095 4.45597313,10.9753681 4.44442932,10.3930388 C4.43239066,9.78303112 4.60514289,9.22485598 4.89972342,8.69108462 C5.45311636,7.68844852 6.34268565,6.92797421 7.36455016,6.37246801 C8.34880758,5.83738463 9.42486362,5.3837834 9.90658216,4.33131397 C10.4172004,3.21586679 10.1149777,1.89465677 10.9538858,0.89964615 C11.3012572,0.487627995 11.7884924,0.121787889 12.3479313,0.0274937247 C12.8844507,-0.0629515884 13.4705298,0.0859771505 13.9834357,0.238666951 Z" id="leaf" fill="#77FAF8"></path>
                            <path d="M12.8694237,2.08320556 C12.9468002,1.93733541 13.1667427,1.92611212 13.2902465,2.02732643 C13.4527999,2.16057776 13.371459,2.33141405 13.2972686,2.48285901 C13.0692657,2.94838273 12.9311206,3.43746403 12.8387822,3.94579756 C12.6467184,5.00264342 12.6899281,6.0731102 12.6250695,7.14087053 C12.5602533,8.20773173 12.2976614,9.22324123 11.65748,10.1009305 C11.0539106,10.9284834 10.3512581,11.6841675 9.74267151,12.5108948 C9.20627132,13.2395447 8.63896171,14.0072237 8.54085942,14.9260386 C8.44634255,15.8104269 8.72413232,16.6865739 8.81357557,17.5626482 C8.99874972,19.3761872 8.64680068,21.1431386 7.9520555,22.8153364 C7.6293965,23.5918206 7.2598011,24.3561215 6.74171319,25.0290724 C6.44343909,25.4165779 6.04112056,25.9406196 5.53283528,26.0752766 C5.29844829,26.1373785 4.98238371,26.0555683 4.92946737,25.7878053 C4.87970068,25.5366053 5.13274077,25.2927861 5.26796032,25.1077832 C5.85338541,24.3069714 6.29808772,23.4210796 6.65773483,22.5047543 C7.00613583,21.6171886 7.2938972,20.7047112 7.39276034,19.7542673 C7.48447379,18.8722271 7.40818819,18.0102556 7.25509643,17.1361191 C7.09912035,16.2453283 6.92537637,15.3449746 7.09979116,14.4473518 C7.27686079,13.5356531 7.81465496,12.7651353 8.39233039,12.0483903 C9.00330695,11.2902582 9.67275772,10.5872753 10.3527698,9.88729886 C11.0154239,9.20523852 11.4671025,8.48284387 11.6870151,7.56083928 C12.1215242,5.73928094 11.9677984,3.78275256 12.8694237,2.08320556 Z" id="middle-thing" fill="#FFFFFF"></path>
                        </g>
                        <g id="Big-Ass-Leaf" transform="translate(0.000000, 9.000000)">
                            <path d="M2.05925827,-1.56319402e-13 C2.97146974,-1.56319402e-13 3.77345613,0.467424116 4.32607336,1.13071449 C4.97296429,1.90719009 5.10361629,2.85542116 5.36629739,3.7808418 C5.49700677,4.24138486 5.72181772,4.69856867 6.11578199,5.01146704 C6.4741139,5.29602847 6.92901467,5.35297326 7.35792276,5.49200309 C8.21510776,5.76984601 8.90727073,6.43915053 9.18062432,7.25582883 C9.51411112,8.25201056 9.16088594,9.25664461 9.22170769,10.2662092 C9.27753747,11.1933636 10.2232009,11.7718057 10.9840465,12.2162569 C11.7342771,12.6545313 12.4101444,13.0647939 12.6361029,13.9185866 C12.8757177,14.8241226 12.9561057,15.8348791 12.6242255,16.7294163 C12.0716656,18.2188667 10.4545531,18.8747342 8.89200791,18.976433 C7.47394311,19.0687041 5.69089044,18.9238227 4.62593605,17.9287788 C3.98868479,17.3333237 3.75790642,16.5005535 3.78653855,15.6720094 C3.80432604,15.1567972 3.90990341,14.646353 4.04640807,14.1484788 C4.14314908,13.7955945 4.27385846,13.4442272 4.31109744,13.0795855 C4.41007622,12.1094651 3.48254456,11.9231347 2.69300941,11.6567783 C1.68973746,11.3182521 0.987361023,10.6788558 0.498950907,9.78805712 C0.0441075115,8.95864616 -0.146735069,8.02759063 0.125929977,7.11441502 C0.265188829,6.64812871 0.517771222,6.22507928 0.860323899,5.86525969 C1.01111593,5.70688706 1.22364778,5.57479247 1.35975078,5.40840098 C1.48678791,5.25300833 1.45913123,5.05166974 1.41535104,4.86967396 C1.2129179,4.02899324 0.582207848,3.33286886 0.356650968,2.49370522 C0.153012869,1.73624734 0.273394027,0.793542784 0.989770941,0.304879506 C1.29927331,0.0937340582 1.68095847,0.00232980607 2.05925827,-1.56319402e-13 Z" id="leaf" fill="#48ECDA"></path>
                            <path d="M3.30226174,2.19044219 C4.2691082,3.18601918 4.53190875,4.5368072 4.60903562,5.84603835 C4.65223805,6.58019172 4.60727109,7.35454744 4.83039826,8.06664913 C5.0213086,8.67613188 5.46887211,9.14203482 5.9302103,9.5823643 C6.85886331,10.4687665 7.89452628,11.3699059 8.16614946,12.6527508 C8.32552601,13.4055967 8.21794684,14.1832032 8.43817108,14.9277594 C8.63841633,15.604535 8.99098003,16.269445 9.41981679,16.8409468 C9.7650947,17.3011607 10.214935,17.6535002 10.5923728,18.0825058 C10.7075224,18.2134614 10.8724771,18.4062377 10.8249488,18.5911034 C10.7693377,18.807611 10.4840537,18.87615 10.2816455,18.8421243 C9.80972014,18.7628574 9.41247408,18.3272417 9.1039097,18.0105534 C8.6527033,17.5474679 8.26928886,17.0493814 7.95765078,16.4906663 C7.61168983,15.8701848 7.33312238,15.2117765 7.21410225,14.5156582 C7.09058543,13.7934789 7.15205924,13.0408498 6.87001966,12.3477656 C6.39541907,11.1815725 5.24426501,10.4933647 4.4119779,9.58442318 C3.37500576,8.45182229 3.52965793,7.04219363 3.63587102,5.64898183 C3.69421422,4.88334927 3.7522159,4.0187279 3.35201,3.31968385 C3.19923619,3.05284213 2.85862573,2.8040427 2.79293983,2.50073712 C2.73277518,2.22284246 3.06114779,1.94202202 3.30226174,2.19044219 Z" id="middle-thing" fill="#FFFFFF"></path>
                        </g>
                        <path d="M4,27 C4,32.9056277 4.95557369,36 10.0000143,36 C15.0444549,36 16,32.9056277 16,27 L4,27 Z" id="Base" fill="#093896"></path>
                    </g>
                </g>
            </g>
        </g>
    </g>
</svg>