<?xml version="1.0" encoding="UTF-8"?>
<svg width="67px" height="91px" viewBox="0 0 67 91" version="1.1" xmlns="http://www.w3.org/2000/svg" xmlns:xlink="http://www.w3.org/1999/xlink">
    <!-- Generator: Sketch 52.2 (67145) - http://www.bohemiancoding.com/sketch -->
    <title>元素3</title>
    <desc>Created with Sketch.</desc>
    <defs>
        <polygon id="path-1" points="0.332335337 0.0829225707 50.5887089 0.0829225707 50.5887089 66.0066007 0.332335337 66.0066007"></polygon>
        <polygon id="path-3" points="0.195828207 0.564210833 4.81702081 0.564210833 4.81702081 24.4133663 0.195828207 24.4133663"></polygon>
        <polygon id="path-5" points="0 0.531251982 23.0235434 0.531251982 23.0235434 4.85076315 0 4.85076315"></polygon>
    </defs>
    <g id="Page-1" stroke="none" stroke-width="1" fill="none" fill-rule="evenodd">
        <g id="2" transform="translate(-97.000000, -141.000000)">
            <g id="分组-2" transform="translate(97.000000, 141.000000)">
                <g id="元素3">
                    <path d="M19.8952719,33.0033003 C19.8952719,33.0033003 18.3286108,22.548147 28.0354694,11.5585905 C28.0387552,11.5550183 28.0433553,11.5478739 28.0440125,11.552875 C28.0558413,11.7593489 28.5559374,21.2378592 19.8952719,33.0033003" id="Fill-1" fill="#FF992C"></path>
                    <path d="M19.932426,33.0033003 C19.9923757,33.0033003 20.0453838,32.9575045 20.0592669,32.8891631 C20.0750432,32.8137762 21.6166972,25.2616983 24.7384991,18.3641479 C24.7706827,18.2922838 24.7454407,18.2049195 24.6817047,18.1682829 C24.6173376,18.1309417 24.5390875,18.1591237 24.506904,18.232397 C21.3699568,25.1630612 19.8207302,32.7496621 19.804954,32.8257536 C19.7898088,32.9032541 19.8339823,32.9828684 19.9040287,32.9997776 C19.9128634,33.0018912 19.9229602,33.0033003 19.932426,33.0033003" id="Fill-3" fill="#FFFFFF"></path>
                    <path d="M34.6534653,57.4728151 C34.6534653,57.4728151 27.2996242,50.6805255 13.2013201,53.4833637 C15.3084147,54.9911498 22.2702225,58.8217414 34.6534653,57.4728151" id="Fill-5" fill="#FF992C"></path>
                    <path d="M34.5127927,57.7557756 C34.5695957,57.7557756 34.6243455,57.7232994 34.6448766,57.6708379 C34.6715672,57.6033874 34.6339267,57.5296915 34.5613832,57.5053343 C34.4902084,57.4822263 27.4309056,55.1576819 19.956873,54.4600687 C19.8788546,54.4369607 19.8097329,54.5044112 19.8028892,54.5749844 C19.7939924,54.6461822 19.8514797,54.7092609 19.9281294,54.7167554 C27.367259,55.4118704 34.3943963,57.7245485 34.4642023,57.7476565 C34.4806272,57.753902 34.4970522,57.7557756 34.5127927,57.7557756" id="Fill-7" fill="#FFFFFF"></path>
                    <g id="分组" transform="translate(16.501650, 24.752475)">
                        <mask id="mask-2" fill="white">
                            <use xlink:href="#path-1"></use>
                        </mask>
                        <g id="Clip-10"></g>
                        <path d="M50.440529,66.0068786 C50.4851996,66.0068786 50.5298703,65.9867292 50.5586901,65.9492097 C50.6084042,65.8852875 50.5947148,65.7949627 50.5298703,65.7477158 C50.4426905,65.6844884 41.7492028,59.3082508 31.3013108,48.0857391 C21.6603728,37.7296509 8.51206712,21.0126107 0.620489936,0.177453535 C0.592390648,0.102414452 0.504490308,0.0642001042 0.430279366,0.0919923571 C0.353186445,0.119089804 0.312838749,0.201771756 0.341658532,0.276116033 C8.24980709,21.1578253 21.4254916,37.9089109 31.0851625,48.2837589 C41.5517873,59.5257252 50.2640078,65.9144693 50.3511877,65.9770019 C50.377846,65.9971513 50.4088272,66.0068786 50.440529,66.0068786" id="Fill-9" fill="#91C7FD" mask="url(#mask-2)"></path>
                    </g>
                    <g id="分组" transform="translate(11.551155, 0.000000)">
                        <mask id="mask-4" fill="white">
                            <use xlink:href="#path-3"></use>
                        </mask>
                        <g id="Clip-12"></g>
                        <path d="M3.81813806,23.8782761 C6.02179593,10.6589983 2.50763201,2.73019802 1.68461221,1.10745486 C-1.62534378,14.1308969 2.81910066,22.2715492 3.81813806,23.8782761 M3.78513476,24.3543972 C3.72187844,24.2684916 -2.41673542,15.5701805 1.50309406,0.67501456 C1.517533,0.61822947 1.56291254,0.575276645 1.61791804,0.566540478 C1.68117437,0.554892254 1.72861661,0.584740827 1.75886964,0.635701805 C1.80906216,0.718695399 6.66673542,9.11051252 4.03678493,24.289604 C4.0264714,24.3485731 3.9845297,24.395166 3.93021177,24.4089983 C3.91921067,24.4119103 3.90820957,24.4133663 3.89720847,24.4133663 C3.85389164,24.4133663 3.81194994,24.3922539 3.78513476,24.3543972" id="Fill-11" fill="#91C7FD" mask="url(#mask-4)"></path>
                    </g>
                    <path d="M17.0814106,25.1998469 C17.182026,25.1767479 17.239132,25.0910579 17.2110322,25.0090936 C17.1847453,24.9301099 13.8259268,16.5791437 13.5748415,8.40208648 C13.5721222,8.31714166 13.4887292,8.25082508 13.3881138,8.25082508 C13.2802469,8.25306047 13.1986669,8.32384783 13.2013862,8.40879265 C13.4524714,16.626832 16.8239802,25.0135644 16.85208,25.0925482 C16.8756476,25.160355 16.9499761,25.2050628 17.0315561,25.2050628 C17.0478721,25.2050628 17.0650946,25.2035726 17.0814106,25.1998469 Z" id="Fill-13" fill="#91C7FD"></path>
                    <path d="M26.6964355,45.7176723 C35.9311458,36.7590743 37.4114237,28.6626937 37.6345078,26.8695868 C27.6673033,34.9576435 26.7728818,43.8843332 26.6964355,45.7176723 M26.4921155,46.1942156 C26.439993,46.1720185 26.4059397,46.1220751 26.4031598,46.0658888 C26.399685,45.9625337 26.2176039,35.6069077 37.7081742,26.4415996 C37.7561269,26.3999801 37.8304883,26.3895752 37.8826107,26.4207898 C37.9298684,26.4485362 37.9569721,26.5019479 37.9534973,26.5560532 C37.9277835,26.9396463 37.2022389,36.059173 26.645008,46.1657756 C26.6185993,46.1921346 26.5824611,46.2046205 26.5463229,46.2046205 C26.5282537,46.2046205 26.5094896,46.2018458 26.4921155,46.1942156" id="Fill-15" fill="#91C7FD"></path>
                    <path d="M26.5650425,46.2046205 C26.6312069,46.2046205 26.693433,46.1665997 26.7170631,46.1032318 C26.7477823,46.0279359 29.758264,38.3440207 34.6252881,31.5949682 C34.675699,31.5248908 34.6567949,31.4287207 34.5819661,31.3795174 C34.5087126,31.3325506 34.407103,31.3496972 34.356692,31.4197746 C29.4668254,38.2023748 26.443741,45.9198377 26.4130218,45.9973702 C26.3815149,46.0771392 26.4240492,46.1665997 26.5091178,46.1949289 C26.5272342,46.2016384 26.5461383,46.2046205 26.5650425,46.2046205" id="Fill-17" fill="#91C7FD"></path>
                    <path d="M42.415095,66.0066007 C42.415095,66.0066007 38.3245273,56.2676799 45.4999877,42.9042904 C45.4999877,42.9042904 48.4059566,52.0289675 42.415095,66.0066007" id="Fill-19" fill="#88B9F3"></path>
                    <path d="M43.0528949,67.6567657 L43.056921,67.6567657 C43.1340889,67.6538046 43.1931392,67.5834785 43.1917971,67.498347 C43.189113,67.4169168 42.9804241,59.2798222 44.5512948,51.3411212 C44.5673995,51.2589507 44.5204277,51.1767803 44.4452728,51.1590137 C44.370789,51.1397666 44.2969762,51.1938066 44.2815426,51.2767173 C42.7019485,59.2516918 42.9126505,67.4265404 42.9146636,67.5079706 C42.9166767,67.5908813 42.978411,67.6567657 43.0528949,67.6567657" id="Fill-21" fill="#2060D0"></path>
                    <g id="分组" transform="translate(0.000000, 33.003300)">
                        <mask id="mask-6" fill="white">
                            <use xlink:href="#path-5"></use>
                        </mask>
                        <g id="Clip-24"></g>
                        <path d="M23.0235434,3.94506326 C23.0235434,3.94506326 14.6349096,-2.1254813 0.000933426676,1.92361111 C0.000215406156,1.92429868 -0.000502614364,1.92498625 0.000215406156,1.92498625 C2.36609302,3.23067932 10.0697352,6.39899615 23.0235434,3.94506326" id="Fill-23" fill="#88B9F3" mask="url(#mask-6)"></path>
                    </g>
                    <path d="M22.9474998,37.9537954 C23.01636,37.9537954 23.0792323,37.8930952 23.0971959,37.8030239 C23.1189018,37.6943509 23.0695021,37.5837198 22.9871692,37.5553278 C22.9078303,37.5269357 14.9739362,34.7954256 6.75786494,34.6534653 L6.75487102,34.6534653 C6.67029271,34.6534653 6.60218098,34.7425576 6.60068402,34.8541677 C6.59918706,34.9657778 6.66804727,35.0578072 6.75262558,35.0597652 C14.9320213,35.1997674 22.8292398,37.9195291 22.9078303,37.9459631 C22.9213029,37.9508583 22.9340271,37.9537954 22.9474998,37.9537954" id="Fill-25" fill="#91C7FD"></path>
                    <path d="M28.5812188,75.9625043 C30.9416552,77.2869069 38.2491228,80.4641393 50.6337691,77.9769007 C49.064886,76.9259757 41.1642868,72.2783377 28.5812188,75.9625043 M28.1281913,76.0514401 C28.0840976,76.0247593 28.0528053,75.9743624 28.0528053,75.9180364 C28.0528053,75.8476288 28.0990326,75.7875971 28.1616172,75.7690688 C42.5518166,71.4060254 51.0128328,77.8686955 51.0967532,77.9346562 C51.1422693,77.9709717 51.1643161,78.0324856 51.1515147,78.091035 C51.1387133,78.1503256 51.0931972,78.1970169 51.0370133,78.2081339 C47.5763673,78.9270318 44.501897,79.2079208 41.8114688,79.2079208 C34.164764,79.2079208 29.6181324,76.9422806 28.1281913,76.0514401" id="Fill-27" fill="#91C7FD"></path>
                    <path d="M52.650519,79.2079208 C52.7193575,79.2079208 52.7822099,79.1475368 52.8001678,79.0564659 C52.8218669,78.945597 52.7724828,78.8337382 52.690176,78.8050311 C52.6108621,78.7773138 44.67424,76.0323183 36.4592711,75.9075908 L36.4585229,75.9075908 C36.3739713,75.9075908 36.3051329,75.9966819 36.3036364,76.1105205 C36.3028882,76.2223793 36.3717266,76.31543 36.4570264,76.3174098 C44.6323383,76.4421373 52.5322965,79.1752541 52.6108621,79.2019814 C52.6235823,79.2069309 52.6370506,79.2079208 52.650519,79.2079208" id="Fill-29" fill="#91C7FD"></path>
                </g>
            </g>
        </g>
    </g>
</svg>