<?xml version="1.0" encoding="UTF-8"?>
<svg width="498px" height="58px" viewBox="0 0 498 58" version="1.1" xmlns="http://www.w3.org/2000/svg" xmlns:xlink="http://www.w3.org/1999/xlink">
    <!-- Generator: Sketch 57.1 (83088) - https://sketch.com -->
    <title>笔</title>
    <desc>Created with Sketch.</desc>
    <g id="Page-1" stroke="none" stroke-width="1" fill="none" fill-rule="evenodd">
        <g id="活动详情页" transform="translate(-513.000000, -95.000000)">
            <g id="分组-2" transform="translate(400.000000, 95.000000)">
                <g id="笔" transform="translate(113.000000, 0.000000)">
                    <g>
                        <polygon id="Fill-1" fill="#0052C9" points="448 0 448 58 497 29.0017682"></polygon>
                        <polygon id="Fill-2" fill="#0065FF" points="448.34355 0 18 0.0617027896 25.6582252 17 456 16.9365343"></polygon>
                        <polygon id="Fill-3" fill="#0065FF" points="25.6612283 41 18 58 448.340548 58 456 41"></polygon>
                        <polygon id="Fill-4" fill="#0052C9" points="7.61569799 0 0 16.9892381 0 41.0125301 7.61569799 58 18.384302 58 26 41.0125301 26 16.9892381 18.384302 0"></polygon>
                        <polygon id="Fill-5" fill="#2692E8" points="26 41 456 40.9400925 456 17 26 17.0616695"></polygon>
                        <g id="分组" transform="translate(4.000000, 0.000000)">
                            <path d="M0.792190421,28.290768 C0.792190421,36.0002042 3.74247807,42.2482026 7.38015964,42.2482026 C11.0178412,42.2482026 13.9663527,36.0002042 13.9663527,28.290768 C13.9663527,20.5813317 11.0178412,14.3333333 7.38015964,14.3333333 C3.74247807,14.3333333 0.792190421,20.5813317 0.792190421,28.290768" id="Fill-6" fill="#AFD5FF"></path>
                            <polygon id="Fill-8" fill="#0052C9" points="493.040846 28.6561275 451.726161 40.5882761 451.726161 16.7222222"></polygon>
                            <polygon id="Fill-10" fill="#0052C9" points="493.454703 28.8089461 444.479218 0 452.140019 16.8750408"></polygon>
                            <path d="M484.651934,28.9932522 C484.651934,30.4564466 484.545362,31.866945 484.346426,33.2036689 C484.248734,33.8588568 484.964548,34.3208257 485.536488,33.9853274 L493.048087,29.5623698 C493.47793,29.2953764 493.47793,28.691128 493.048087,28.4241346 L485.536488,24.001177 C484.964548,23.6656787 484.248734,24.1276476 484.346426,24.7828355 C484.545362,26.1195594 484.651934,27.5300578 484.651934,28.9932522" id="Fill-12" fill="#AFD5FF"></path>
                        </g>
                    </g>
                </g>
            </g>
        </g>
    </g>
</svg>