<?xml version="1.0" standalone="no"?><!DOCTYPE svg PUBLIC "-//W3C//DTD SVG 1.1//EN" "http://www.w3.org/Graphics/SVG/1.1/DTD/svg11.dtd"><svg t="1544419442397" class="icon" style="" viewBox="0 0 1024 1024" version="1.1" xmlns="http://www.w3.org/2000/svg" p-id="1913" xmlns:xlink="http://www.w3.org/1999/xlink" width="128" height="128"><defs><style type="text/css"></style></defs><path d="M910.2336 1024H113.7664C51.2 1024 0 972.8 0 910.2336V113.7664C0 51.2 51.2 0 113.7664 0h796.4672C972.8 0 1024 51.2 1024 113.7664v796.4672C1024 972.8 972.8 1024 910.2336 1024zM569.6 230.4v112.64H512v56.32h57.6v56.32H512V512h57.6v112.64h-115.2v-56.32H512V512h-57.6v-56.32H512v-56.32h-57.6v-56.32H512V230.4h-230.4v563.2h460.8V230.4h-172.8z" fill="#808A7F" p-id="1914"></path></svg>