<?xml version="1.0" encoding="UTF-8"?>
<svg width="40px" height="40px" viewBox="0 0 40 40" version="1.1" xmlns="http://www.w3.org/2000/svg" xmlns:xlink="http://www.w3.org/1999/xlink">
    <!-- Generator: Sketch 57.1 (83088) - https://sketch.com -->
    <title>2-蓝色</title>
    <desc>Created with Sketch.</desc>
    <g id="Page-1" stroke="none" stroke-width="1" fill="none" fill-rule="evenodd">
        <g id="提交作品" transform="translate(-1220.000000, -223.000000)" fill="#2568ED" fill-rule="nonzero">
            <g id="1-蓝色" transform="translate(1220.000000, 223.000000)">
                <g transform="translate(6.000000, 3.000000)" id="2">
                    <path d="M19.549,0.478 C24.793,0.478 26.265,1.49 26.265,4.342 C26.265,5.768 26.035,7.286 25.667,9.31 L24.839,13.956 C24.195,17.682 23.459,18.188 19.779,19.246 L12.281,21.362 C8.555,22.42 8.417,22.65 7.957,25.272 L7.129,30.194 L22.769,30.194 L20.653,35.3 L0.597,35.3 L2.391,25.088 C3.495,18.878 4.139,18.648 11.177,16.624 L16.329,15.152 C18.905,14.416 19.227,14.048 19.549,12.3 L20.147,8.896 C20.285,8.068 20.423,7.424 20.423,6.918 C20.423,5.722 19.687,5.538 17.295,5.538 L6.715,5.538 L5.795,0.478 L19.549,0.478 Z"></path>
                </g>
            </g>
        </g>
    </g>
</svg>