<?xml version="1.0" encoding="UTF-8"?>
<svg width="40px" height="40px" viewBox="0 0 40 40" version="1.1" xmlns="http://www.w3.org/2000/svg" xmlns:xlink="http://www.w3.org/1999/xlink">
    <!-- Generator: Sketch 57.1 (83088) - https://sketch.com -->
    <title>3-蓝色</title>
    <desc>Created with Sketch.</desc>
    <g id="Page-1" stroke="none" stroke-width="1" fill="none" fill-rule="evenodd">
        <g id="专家评审中" transform="translate(-1220.000000, -313.000000)" fill="#2568ED" fill-rule="nonzero">
            <g id="1-蓝色" transform="translate(1220.000000, 313.000000)">
                <g transform="translate(7.000000, 3.000000)" id="3">
                    <path d="M14.915,0.478 C21.401,0.478 23.931,1.306 23.931,5.584 C23.931,6.596 23.793,8.068 23.563,9.54 L23.149,11.978 C22.597,15.106 20.711,16.486 18.181,17.038 C20.941,17.682 22.183,19.016 22.183,21.454 C22.183,22.65 21.861,24.214 21.677,25.41 L21.217,28.124 C20.803,30.562 19.883,32.586 18.089,33.874 C16.479,35.024 14.087,35.3 11.327,35.3 L1.345,35.3 L0.471,30.378 L11.005,30.378 C14.685,30.378 15.283,29.09 15.835,26.146 L16.157,24.352 C16.387,23.202 16.571,22.052 16.571,21.362 C16.571,19.706 15.375,19.614 12.937,19.614 L7.417,19.614 L6.589,14.738 L12.753,14.738 C16.203,14.738 17.077,14.094 17.537,11.426 L17.859,9.54 C17.997,8.712 18.089,8.022 18.089,7.424 C18.089,5.584 17.123,5.4 13.903,5.4 L5.485,5.4 L4.611,0.478 L14.915,0.478 Z"></path>
                </g>
            </g>
        </g>
    </g>
</svg>