<?xml version="1.0" encoding="UTF-8"?>
<svg width="58px" height="78px" viewBox="0 0 58 78" version="1.1" xmlns="http://www.w3.org/2000/svg" xmlns:xlink="http://www.w3.org/1999/xlink">
    <!-- Generator: Sketch 52.2 (67145) - http://www.bohemiancoding.com/sketch -->
    <title>元素4</title>
    <desc>Created with Sketch.</desc>
    <defs>
        <polygon id="path-1" points="0.283214554 0.0706662107 43.1114512 0.0706662107 43.1114512 56.2505034 0.283214554 56.2505034"></polygon>
        <polygon id="path-3" points="0.166883844 0.480817722 4.10504166 0.480817722 4.10504166 20.8049518 0.166883844 20.8049518"></polygon>
        <polygon id="path-5" points="0 0.45273035 19.6205515 0.45273035 19.6205515 4.13379671 0 4.13379671"></polygon>
    </defs>
    <g id="Page-1" stroke="none" stroke-width="1" fill="none" fill-rule="evenodd">
        <g id="2" transform="translate(-582.000000, -141.000000)">
            <g id="分组-2" transform="translate(97.000000, 141.000000)">
                <g id="元素4" transform="translate(513.828383, 38.672221) scale(-1, 1) translate(-513.828383, -38.672221) translate(485.000000, 0.000000)">
                    <path d="M16.9546537,28.1252517 C16.9546537,28.1252517 15.6195528,19.215421 23.8916904,9.8501745 C23.8944906,9.84713028 23.8984107,9.84104184 23.8989708,9.84530375 C23.9090512,10.0212598 24.3352307,18.0988001 16.9546537,28.1252517" id="Fill-1" fill="#FF992C"></path>
                    <path d="M16.9863163,28.1252517 C17.0374051,28.1252517 17.0825784,28.0862248 17.0944095,28.0279845 C17.107854,27.9637402 18.421644,21.5278962 21.0820284,15.6498374 C21.1094551,15.5885951 21.087944,15.5141437 21.0336284,15.4829221 C20.9787752,15.4511001 20.9120908,15.4751167 20.8846641,15.5375598 C18.211373,21.4438382 16.8911297,27.9091025 16.8776853,27.9739472 C16.8647786,28.0399928 16.902423,28.1078397 16.9621163,28.1222496 C16.9696452,28.1240509 16.9782496,28.1252517 16.9863163,28.1252517" id="Fill-3" fill="#FFFFFF"></path>
                    <path d="M29.5315143,48.9780529 C29.5315143,48.9780529 23.2646067,43.1896968 11.2501007,45.5782619 C13.0457564,46.8631899 18.9785751,50.1276014 29.5315143,48.9780529" id="Fill-5" fill="#FF992C"></path>
                    <path d="M29.4116338,49.2191905 C29.460041,49.2191905 29.5066985,49.1915145 29.524195,49.146807 C29.5469406,49.089326 29.5148635,49.0265227 29.4530423,49.0057657 C29.3923876,48.9860731 23.3764841,47.0051077 17.0071499,46.4106052 C16.940663,46.3909126 16.8817579,46.4483936 16.8759257,46.5085358 C16.8683438,46.5692101 16.9173342,46.6229655 16.9826547,46.6293523 C23.3222447,47.2217259 29.3107369,49.1925789 29.3702252,49.2122715 C29.3842225,49.2175938 29.3982197,49.2191905 29.4116338,49.2191905" id="Fill-7" fill="#FFFFFF"></path>
                    <g id="分组" transform="translate(14.062626, 21.093939)">
                        <mask id="mask-2" fill="white">
                            <use xlink:href="#path-1"></use>
                        </mask>
                        <g id="Clip-10"></g>
                        <path d="M42.985173,56.2507403 C43.0232411,56.2507403 43.0613092,56.2335691 43.0858693,56.2015951 C43.1282354,56.1471209 43.1165694,56.0701465 43.0613092,56.029883 C42.987015,55.976001 35.5784672,50.5422023 26.6748246,40.9784325 C18.4588641,32.1530246 7.25394212,17.9068445 0.5287785,0.151225038 C0.504832423,0.0872770969 0.429924182,0.054711016 0.366681979,0.0783954384 C0.300983768,0.10148775 0.266599657,0.171948907 0.291159736,0.235304737 C7.0304454,18.0305956 18.2586995,32.3057891 26.490624,41.147184 C35.4102306,50.7275329 42.8347425,56.1719896 42.9090367,56.2252795 C42.9317548,56.2424507 42.9581569,56.2507403 42.985173,56.2507403" id="Fill-9" fill="#91C7FD" mask="url(#mask-2)"></path>
                    </g>
                    <g id="分组" transform="translate(9.843838, 0.000000)">
                        <mask id="mask-4" fill="white">
                            <use xlink:href="#path-3"></use>
                        </mask>
                        <g id="Clip-12"></g>
                        <path d="M3.25379865,20.3489505 C5.13174515,9.08354637 2.13699178,2.32666145 1.43561832,0.943767637 C-1.38511005,12.0422815 2.40242384,18.9797057 3.25379865,20.3489505 M3.2256734,20.7546986 C3.17176667,20.6814902 -2.05953015,13.268832 1.28092943,0.575244119 C1.29323423,0.526852142 1.33190645,0.490247954 1.37878187,0.482803034 C1.4326886,0.472876475 1.47311865,0.498313283 1.49890013,0.541741981 C1.54167395,0.612468717 5.68135944,7.76393437 3.44012844,20.6994821 C3.4313393,20.7497353 3.3955968,20.7894416 3.34930732,20.8012294 C3.33993223,20.803711 3.33055715,20.8049518 3.32118207,20.8049518 C3.28426767,20.8049518 3.24852517,20.7869599 3.2256734,20.7546986" id="Fill-11" fill="#91C7FD" mask="url(#mask-4)"></path>
                    </g>
                    <path d="M14.5566949,21.4751868 C14.6424388,21.4555019 14.6911043,21.3824773 14.6671578,21.3126277 C14.6447562,21.2453181 11.7823874,14.1286655 11.5684138,7.16021716 C11.5660964,7.08782759 11.4950293,7.03131293 11.4092854,7.03131293 C11.3173617,7.03321792 11.2478396,7.09354255 11.250157,7.16593212 C11.4641306,14.1693052 14.337314,21.3164377 14.3612605,21.3837473 C14.3813447,21.441532 14.444687,21.4796317 14.5142091,21.4796317 C14.5281136,21.4796317 14.5427905,21.4783617 14.5566949,21.4751868 Z" id="Fill-13" fill="#91C7FD"></path>
                    <path d="M22.7505723,38.9603775 C30.6203473,31.325904 31.881833,24.4262079 32.0719442,22.8981309 C23.577941,29.7907334 22.8157194,37.3980149 22.7505723,38.9603775 M22.5764517,39.3664854 C22.5320332,39.3475692 22.5030131,39.3050076 22.5006441,39.2571259 C22.4976829,39.1690472 22.3425142,30.3440333 32.1347223,22.5334023 C32.1755873,22.4979344 32.2389578,22.4890674 32.2833763,22.5156683 C32.323649,22.5393136 32.3467467,22.5848308 32.3437854,22.6309391 C32.3218723,22.9578353 31.7035667,30.7294515 22.706746,39.342249 C22.6842406,39.364712 22.6534438,39.3753524 22.622647,39.3753524 C22.6072486,39.3753524 22.5912579,39.3729879 22.5764517,39.3664854" id="Fill-15" fill="#91C7FD"></path>
                    <path d="M22.6385997,39.3753524 C22.6949847,39.3753524 22.7480135,39.3429513 22.768151,39.2889495 C22.7943298,39.2247827 25.3598475,32.6765876 29.5075017,26.9250779 C29.5504617,26.8653583 29.5343517,26.7834026 29.470583,26.7414718 C29.4081567,26.7014469 29.3215655,26.7160592 29.2786055,26.7757788 C25.111485,32.5558777 22.5352272,39.1326619 22.5090485,39.1987347 C22.4821985,39.2667135 22.518446,39.3429513 22.590941,39.3670933 C22.6063797,39.3728111 22.6224897,39.3753524 22.6385997,39.3753524" id="Fill-17" fill="#91C7FD"></path>
                    <path d="M36.1459373,56.2505034 C36.1459373,56.2505034 32.6599754,47.9510426 38.7748678,36.5628272 C38.7748678,36.5628272 41.2513203,44.3388325 36.1459373,56.2505034" id="Fill-19" fill="#88B9F3"></path>
                    <path d="M36.6894672,57.656766 L36.6928983,57.656766 C36.7586604,57.6542426 36.8089827,57.594311 36.807839,57.5217624 C36.8055517,57.452368 36.627708,50.5179756 37.9663964,43.7526533 C37.9801206,43.682628 37.9400915,43.6126028 37.8760449,43.5974622 C37.8125701,43.5810599 37.7496672,43.6271125 37.7365148,43.6977686 C36.3903924,50.494003 36.5699516,57.4605691 36.5716672,57.5299635 C36.5733827,57.6006196 36.6259924,57.656766 36.6894672,57.656766" id="Fill-21" fill="#2060D0"></path>
                    <g id="分组" transform="translate(0.000000, 28.125252)">
                        <mask id="mask-6" fill="white">
                            <use xlink:href="#path-5"></use>
                        </mask>
                        <g id="Clip-24"></g>
                        <path d="M19.6205515,3.36196368 C19.6205515,3.36196368 12.4717987,-1.8113248 0.000795461664,1.63929201 C0.000183568076,1.63987796 -0.000428325512,1.6404639 0.000183568076,1.6404639 C2.01637294,2.75316917 8.58137925,5.45319333 19.6205515,3.36196368" id="Fill-23" fill="#88B9F3" mask="url(#mask-6)"></path>
                    </g>
                    <path d="M19.5557475,32.3440395 C19.6144298,32.3440395 19.6680093,32.292311 19.6833178,32.2155527 C19.7018155,32.1229421 19.6597173,32.0286629 19.5895536,32.0044673 C19.5219413,31.9802717 12.7607155,29.6524921 5.75901957,29.5315143 L5.75646816,29.5315143 C5.68439094,29.5315143 5.62634646,29.6074383 5.62507075,29.7025519 C5.62379505,29.7976654 5.68247739,29.8760924 5.75455461,29.8777611 C12.7249958,29.9970702 19.4549669,32.3148379 19.5219413,32.3373648 C19.5334227,32.3415365 19.5442661,32.3440395 19.5557475,32.3440395" id="Fill-25" fill="#91C7FD"></path>
                    <path d="M24.3567753,64.734876 C26.3683278,65.8635255 32.5957161,68.5711474 43.1498513,66.4515348 C41.8128568,65.5559416 35.0800046,61.5952471 24.3567753,64.734876 M23.9707076,64.8106666 C23.9331311,64.7879294 23.906464,64.7449814 23.906464,64.6969806 C23.906464,64.6369797 23.9458586,64.585821 23.9991929,64.5700312 C36.2624508,60.8518669 43.4728875,66.3593228 43.544404,66.4155342 C43.5831926,66.4464821 43.6019809,66.498904 43.5910716,66.5487995 C43.5801623,66.5993266 43.5413737,66.6391167 43.493494,66.6485906 C40.5443484,67.2612319 37.9242998,67.5006041 35.63153,67.5006041 C29.1150454,67.5006041 25.2404281,65.5698366 23.9707076,64.8106666" id="Fill-27" fill="#91C7FD"></path>
                    <path d="M44.8685157,67.5006041 C44.9271795,67.5006041 44.9807421,67.4491452 44.9960457,67.371535 C45.0145375,67.2770531 44.9724526,67.1817275 44.9023112,67.1572634 C44.8347203,67.133643 38.0711696,64.7943711 31.0704132,64.6880789 L31.0697755,64.6880789 C30.9977211,64.6880789 30.9390573,64.7640019 30.937782,64.8610146 C30.9371444,64.9563402 30.9958082,65.0356375 31.0685002,65.0373247 C38.0354612,65.1436169 44.7677671,67.4727657 44.8347203,67.4955426 C44.8455604,67.4997605 44.857038,67.5006041 44.8685157,67.5006041" id="Fill-29" fill="#91C7FD"></path>
                </g>
            </g>
        </g>
    </g>
</svg>