<?xml version="1.0" encoding="UTF-8"?>
<svg width="49px" height="57px" viewBox="0 0 49 57" version="1.1" xmlns="http://www.w3.org/2000/svg" xmlns:xlink="http://www.w3.org/1999/xlink">
    <!-- Generator: Sketch 52.2 (67145) - http://www.bohemiancoding.com/sketch -->
    <title>元素-笔</title>
    <desc>Created with Sketch.</desc>
    <g id="Page-1" stroke="none" stroke-width="1" fill="none" fill-rule="evenodd">
        <g id="3" transform="translate(-647.000000, -500.000000)">
            <g id="元素-笔" transform="translate(673.363367, 526.894447) rotate(-50.000000) translate(-673.363367, -526.894447) translate(638.363367, 520.542595)">
                <polygon id="Fill-1" fill="#0052C9" points="59.1263235 0.121889978 59.1263235 12.6280991 69.6389052 6.37537582"></polygon>
                <polygon id="Fill-2" fill="#0065FF" points="59.1263235 0.121889978 3.97044118 0.135234205 5.61521242 3.79841503 60.7707135 3.78468954"></polygon>
                <polygon id="Fill-3" fill="#0065FF" points="5.61509804 8.97826253 3.9703268 12.6410621 59.1262092 12.6280991 60.7705991 8.96529956"></polygon>
                <polygon id="Fill-4" fill="#0052C9" points="1.64465686 0.135272331 -0.000114379085 3.79845316 -0.000114379085 8.97830065 1.64465686 12.6411002 3.97036492 12.6411002 5.61513617 8.97830065 5.61513617 3.79845316 3.97036492 0.135272331"></polygon>
                <polygon id="Fill-5" fill="#2692E8" points="5.61525054 8.97814815 60.7707516 8.96518519 60.7707516 3.78495643 5.61525054 3.79830065"></polygon>
                <g id="分组" transform="translate(1.143791, 0.059553)">
                    <path d="M0.0660729847,6.32867102 C0.0660729847,8.00203704 0.699351852,9.35819172 1.48017974,9.35819172 C2.26100763,9.35819172 2.89390523,8.00203704 2.89390523,6.32867102 C2.89390523,4.65530501 2.26100763,3.29915033 1.48017974,3.29915033 C0.699351852,3.29915033 0.0660729847,4.65530501 0.0660729847,6.32867102" id="Fill-6" fill="#AFD5FF"></path>
                    <polygon id="Fill-8" fill="#0052C9" points="68.4950763 6.31563181 59.6268845 8.90555556 59.6268845 3.7253268"></polygon>
                    <polygon id="Fill-10" fill="#0052C9" points="68.4950763 6.31563181 57.9824946 0.0625272331 59.6268845 3.7253268"></polygon>
                    <path d="M66.6708824,6.31639434 C66.6708824,6.63398693 66.6480065,6.94014161 66.605305,7.23028322 C66.5843355,7.37249455 66.7379847,7.47276688 66.8607516,7.39994553 L68.4731155,6.43992375 C68.5653813,6.38197168 68.5653813,6.25081699 68.4731155,6.19286492 L66.8607516,5.23284314 C66.7379847,5.16002179 66.5843355,5.26029412 66.605305,5.40250545 C66.6480065,5.69264706 66.6708824,5.99880174 66.6708824,6.31639434" id="Fill-12" fill="#AFD5FF"></path>
                </g>
            </g>
        </g>
    </g>
</svg>