<?xml version="1.0" encoding="UTF-8"?>
<svg width="690px" height="300px" viewBox="0 0 690 300" version="1.1" xmlns="http://www.w3.org/2000/svg" xmlns:xlink="http://www.w3.org/1999/xlink">
    <!-- Generator: Sketch 57.1 (83088) - https://sketch.com -->
    <title>文字背景-上</title>
    <desc>Created with Sketch.</desc>
    <defs>
        <path d="M41.4782811,36.4013325 L41.4782811,0 L41.4782811,0 L686,0 C688.209139,-4.05812251e-16 690,1.790861 690,4 L690,296 C690,298.209139 688.209139,300 686,300 L4,300 C1.790861,300 3.16642949e-14,298.209139 0,296 L0,40.4013325 L0,40.4013325 L37.4782811,40.4013325 C39.6874201,40.4013325 41.4782811,38.6104715 41.4782811,36.4013325 Z" id="path-1"></path>
        <path d="M41.4782811,36.4013325 L41.4782811,0 L41.4782811,0 L686,0 C688.209139,-4.05812251e-16 690,1.790861 690,4 L690,296 C690,298.209139 688.209139,300 686,300 L4,300 C1.790861,300 3.16642949e-14,298.209139 0,296 L0,40.4013325 L0,40.4013325 L37.4782811,40.4013325 C39.6874201,40.4013325 41.4782811,38.6104715 41.4782811,36.4013325 Z" id="path-3"></path>
    </defs>
    <g id="Page-1" stroke="none" stroke-width="1" fill="none" fill-rule="evenodd">
        <g id="活动详情页" transform="translate(-400.000000, -208.000000)">
            <g id="分组-2" transform="translate(400.000000, 95.000000)">
                <g id="文字背景" transform="translate(0.000000, 113.000000)">
                    <mask id="mask-2" fill="white">
                        <use xlink:href="#path-1"></use>
                    </mask>
                    <path stroke="#2568ED" stroke-width="2" d="M1,41.4013325 L1,296 C1,297.656854 2.34314575,299 4,299 L686,299 C687.656854,299 689,297.656854 689,296 L689,4 C689,2.34314575 687.656854,1 686,1 L42.4782811,1 L42.4782811,36.4013325 C42.4782811,39.1627562 40.2397048,41.4013325 37.4782811,41.4013325 L1,41.4013325 Z"></path>
                    <mask id="mask-4" fill="white">
                        <use xlink:href="#path-3"></use>
                    </mask>
                    <path stroke="#2568ED" stroke-width="2" d="M1,41.4013325 L1,296 C1,297.656854 2.34314575,299 4,299 L686,299 C687.656854,299 689,297.656854 689,296 L689,4 C689,2.34314575 687.656854,1 686,1 L42.4782811,1 L42.4782811,36.4013325 C42.4782811,39.1627562 40.2397048,41.4013325 37.4782811,41.4013325 L1,41.4013325 Z"></path>
                    <polygon id="路径-7-copy-3" fill="#ABC7FF" points="41.5126135 1 0 41 38.2949077 41 40.8894274 39.1143766 42 36.5802121"></polygon>
                    <path d="M42.1439303,1 L0.957243355,41.2735371" id="路径-4-copy-3" stroke="#2568ED" stroke-width="2"></path>
                </g>
            </g>
        </g>
    </g>
</svg>