<?xml version="1.0" encoding="UTF-8"?>
<svg width="234px" height="28px" viewBox="0 0 234 28" version="1.1" xmlns="http://www.w3.org/2000/svg" xmlns:xlink="http://www.w3.org/1999/xlink">
    <!-- Generator: Sketch 57.1 (83088) - https://sketch.com -->
    <title>标题底色+笔</title>
    <desc>Created with Sketch.</desc>
    <g id="Page-1" stroke="none" stroke-width="1" fill="none" fill-rule="evenodd">
        <g id="活动详情页" transform="translate(-401.000000, -593.000000)">
            <g id="分组-2" transform="translate(400.000000, 95.000000)">
                <g id="标题底色+笔" transform="translate(1.000000, 498.000000)">
                    <g>
                        <rect id="矩形-copy-5" fill="#F2FBFF" x="0" y="1" width="219" height="20"></rect>
                        <g id="分组-copy-30" transform="translate(221.939947, 13.419029) rotate(-50.000000) translate(-221.939947, -13.419029) translate(206.939947, 10.419029)">
                            <polygon id="Fill-1" fill="#0052C9" points="25.3398529 0.0522385621 25.3398529 5.41204248 29.8452451 2.73230392"></polygon>
                            <polygon id="Fill-2" fill="#0065FF" points="25.3398529 0.0522385621 1.70161765 0.0579575163 2.40651961 1.62789216 26.0445915 1.6220098"></polygon>
                            <polygon id="Fill-3" fill="#0065FF" points="2.40647059 3.8478268 1.70156863 5.41759804 25.3398039 5.41204248 26.0445425 3.84227124"></polygon>
                            <polygon id="Fill-4" fill="#0052C9" points="0.704852941 0.0579738562 -4.90196078e-05 1.6279085 -4.90196078e-05 3.84784314 0.704852941 5.41761438 1.70158497 5.41761438 2.40648693 3.84784314 2.40648693 1.6279085 1.70158497 0.0579738562"></polygon>
                            <polygon id="Fill-5" fill="#2692E8" points="2.40653595 3.84777778 26.0446078 3.84222222 26.0446078 1.62212418 2.40653595 1.62784314"></polygon>
                            <g id="分组" transform="translate(0.490196, 0.025523)">
                                <path d="M0.0283169935,2.71228758 C0.0283169935,3.42944444 0.299722222,4.01065359 0.634362745,4.01065359 C0.969003268,4.01065359 1.2402451,3.42944444 1.2402451,2.71228758 C1.2402451,1.99513072 0.969003268,1.41392157 0.634362745,1.41392157 C0.299722222,1.41392157 0.0283169935,1.99513072 0.0283169935,2.71228758" id="Fill-6" fill="#AFD5FF"></path>
                                <polygon id="Fill-8" fill="#0052C9" points="29.3550327 2.70669935 25.5543791 3.81666667 25.5543791 1.59656863"></polygon>
                                <polygon id="Fill-10" fill="#0052C9" points="29.3550327 2.70669935 24.8496405 0.0267973856 25.5543791 1.59656863"></polygon>
                                <path d="M28.5732353,2.70702614 C28.5732353,2.84313725 28.5634314,2.97434641 28.5451307,3.09869281 C28.5361438,3.15964052 28.6019935,3.20261438 28.6546078,3.17140523 L29.3456209,2.75996732 C29.3851634,2.73513072 29.3851634,2.67892157 29.3456209,2.65408497 L28.6546078,2.24264706 C28.6019935,2.21143791 28.5361438,2.25441176 28.5451307,2.31535948 C28.5634314,2.43970588 28.5732353,2.57091503 28.5732353,2.70702614" id="Fill-12" fill="#AFD5FF"></path>
                            </g>
                        </g>
                    </g>
                </g>
            </g>
        </g>
    </g>
</svg>