<?xml version="1.0" encoding="UTF-8"?>
<svg width="46px" height="40px" viewBox="0 0 46 40" version="1.1" xmlns="http://www.w3.org/2000/svg" xmlns:xlink="http://www.w3.org/1999/xlink">
    <!-- Generator: Sketch 52.2 (67145) - http://www.bohemiancoding.com/sketch -->
    <title>元素1</title>
    <desc>Created with Sketch.</desc>
    <g id="Page-1" stroke="none" stroke-width="1" fill="none" fill-rule="evenodd">
        <g id="1" transform="translate(-541.000000, -179.000000)">
            <g id="分组" transform="translate(116.000000, 148.000000)">
                <g id="元素1" transform="translate(425.000000, 31.000000)">
                    <g id="分组-4" transform="translate(0.000000, 13.000000)">
                        <path d="M20.1556767,27 C22.4413621,22.8200951 22.8047411,17.4423461 20.0925191,13.5342065 C18.3481217,11.0195127 15.4611041,9.19505068 14.546652,6.29131721 C14.1161124,4.9259999 14.1650373,3.41354857 13.4916519,2.14516663 C12.436207,0.159289891 9.54118348,-0.623549729 7.59219084,0.550926074 C5.93585843,1.54840829 5.19442285,3.5459692 5.01340048,5.43923804 C4.83282289,7.33250688 5.09256997,9.24871133 4.87685536,11.1389509 C4.67893164,12.8790273 4.07404118,14.5732324 3.12044916,16.0553915 C2.39591493,17.1822651 1.47479129,18.1875367 0.853889024,19.371533 C-0.383467784,21.7295723 -0.24158539,24.6748495 1.05626047,27 L20.1556767,27 Z" id="Fill-1" fill="#FFC963"></path>
                        <path d="M9.5002,26.6502316 L9.5,3" id="Stroke-3" stroke="#FFFFFF" stroke-linecap="round" stroke-linejoin="round"></path>
                        <path d="M13,6 L10.37515,11.25" id="Stroke-5" stroke="#FFFFFF" stroke-linecap="round" stroke-linejoin="round"></path>
                        <path d="M5,14 L10,17" id="Stroke-7" stroke="#FFFFFF" stroke-linecap="round" stroke-linejoin="round"></path>
                        <path d="M14,18 L9.41666667,23.25" id="Stroke-9" stroke="#FFFFFF" stroke-linecap="round" stroke-linejoin="round"></path>
                    </g>
                    <g id="分组-3" transform="translate(23.000000, 0.000000)">
                        <path d="M1.88791742,40 L19.5383742,40 C19.6269502,39.9146346 19.7191232,39.8319368 19.8045518,39.7439038 C22.8530055,36.5716005 23.8426289,31.6035113 22.2410666,27.5166421 C21.3669967,25.2869153 19.8297308,23.3897579 18.5608907,21.3561048 C17.2920505,19.3228963 16.2552166,16.9784597 16.5686048,14.6064572 C16.7349658,13.3526527 17.2682204,12.1793229 17.5838568,10.9539735 C18.4691673,7.5220171 17.4031077,3.52095795 14.5515896,1.39304718 C11.7005211,-0.734863593 7.13053831,-0.437418481 4.9570538,2.37119254 C3.47689017,4.28302211 3.27231105,6.885778 3.51690674,9.28579103 C3.76195206,11.6853594 4.39502326,14.0533604 4.36399917,16.4644888 C4.32083523,19.8235289 3.00028827,23.015395 1.83171436,26.1672461 C0.663140462,29.3195419 -0.385833341,32.6696897 0.138878373,35.9882702 C0.393815427,37.599987 1.01564602,38.9280416 1.88791742,40" id="Fill-11" fill="#093896"></path>
                        <path d="M9.5,3 L9.5258,37.9655549" id="Stroke-13" stroke="#FFFFFF" stroke-linecap="round" stroke-linejoin="round"></path>
                        <path d="M15,9 L9.39435,16.2" id="Stroke-15" stroke="#FFFFFF" stroke-linecap="round" stroke-linejoin="round"></path>
                        <path d="M17,24 L9.8,31.2" id="Stroke-17" stroke="#FFFFFF" stroke-linecap="round" stroke-linejoin="round"></path>
                        <path d="M4,29 L8.89435,34.25" id="Stroke-19" stroke="#FFFFFF" stroke-linecap="round" stroke-linejoin="round"></path>
                        <path d="M6,8 L9.7715,13.25" id="Stroke-21" stroke="#FFFFFF" stroke-linecap="round" stroke-linejoin="round"></path>
                    </g>
                </g>
            </g>
        </g>
    </g>
</svg>