<?xml version="1.0" standalone="no"?><!DOCTYPE svg PUBLIC "-//W3C//DTD SVG 1.1//EN" "http://www.w3.org/Graphics/SVG/1.1/DTD/svg11.dtd"><svg t="1544419431084" class="icon" style="" viewBox="0 0 1024 1024" version="1.1" xmlns="http://www.w3.org/2000/svg" p-id="1651" xmlns:xlink="http://www.w3.org/1999/xlink" width="128" height="128"><defs><style type="text/css"></style></defs><path d="M910.2336 1024H113.7664C51.2 1024 0 972.8 0 910.2336V113.7664C0 51.2 51.2 0 113.7664 0h796.4672C972.8 0 1024 51.2 1024 113.7664v796.4672C1024 972.8 972.8 1024 910.2336 1024z m-270.6176-253.824l-196.6592-516.352h-71.3472l-196.6592 516.352h73.6768l49.664-141.3376h214.9888l52.6592 141.3376h73.6768z m-146.9952-199.68h-173.3376l77.312-214.656c3.1232-8.448 5.888-20.48 8.3456-36.0192h1.6896c2.8672 17.1264 5.5296 29.1328 7.9872 36.0192l78.0032 214.656z m15.104-257.1008h341.3504V256.512H507.7248v56.8832z m85.3504 142.2336h256v-56.8832h-256v56.8832z m85.3248 142.208h170.6752v-56.8832H678.4v56.8832z" fill="#A6A6A6" p-id="1652"></path></svg>